<svg xmlns="http://www.w3.org/2000/svg" xmlns:xlink="http://www.w3.org/1999/xlink" width="100" zoomAndPan="magnify" viewBox="0 0 75.119995 83.04" height="100" preserveAspectRatio="xMidYMid meet" version="1.2"><defs><clipPath id="b11185c0d3"><path d="M 15 11.078125 L 71.878906 11.078125 L 71.878906 44 L 15 44 Z M 15 11.078125 "/></clipPath><clipPath id="af6ac2d57f"><path d="M 2.195312 15 L 59 15 L 59 49 L 2.195312 49 Z M 2.195312 15 "/></clipPath><clipPath id="74346a957d"><path d="M 18 53 L 24 53 L 24 62.972656 L 18 62.972656 Z M 18 53 "/></clipPath><clipPath id="1f4a61e983"><path d="M 29 53 L 36 53 L 36 62.972656 L 29 62.972656 Z M 29 53 "/></clipPath></defs><g id="066d9b9510"><g clip-rule="nonzero" clip-path="url(#b11185c0d3)"><path style=" stroke:none;fill-rule:nonzero;fill:#cbc8c8;fill-opacity:1;" d="M 36.371094 11.285156 C 35.550781 11.285156 34.742188 11.363281 33.9375 11.523438 C 33.136719 11.683594 32.355469 11.917969 31.597656 12.234375 C 30.84375 12.546875 30.125 12.929688 29.445312 13.386719 C 28.761719 13.839844 28.132812 14.355469 27.554688 14.933594 C 26.976562 15.515625 26.457031 16.144531 26.003906 16.824219 C 25.546875 17.503906 25.164062 18.222656 24.851562 18.980469 C 24.539062 19.738281 24.300781 20.515625 24.140625 21.320312 C 23.980469 22.121094 23.902344 22.933594 23.902344 23.75 C 23.90625 24.214844 23.933594 24.671875 23.988281 25.132812 C 19.285156 25.976562 15.757812 29.773438 15.757812 34.359375 C 15.757812 39.570312 20.308594 43.765625 25.964844 43.765625 L 62.398438 43.765625 C 67.605469 43.765625 71.800781 39.867188 71.800781 35.023438 C 71.800781 30.210938 67.660156 26.332031 62.496094 26.285156 C 62.414062 25.636719 62.273438 25.003906 62.078125 24.382812 C 61.878906 23.761719 61.628906 23.164062 61.324219 22.585938 C 61.019531 22.011719 60.664062 21.46875 60.261719 20.957031 C 59.855469 20.445312 59.410156 19.972656 58.921875 19.542969 C 58.433594 19.109375 57.910156 18.726562 57.351562 18.390625 C 56.792969 18.054688 56.207031 17.769531 55.597656 17.542969 C 54.988281 17.3125 54.363281 17.136719 53.722656 17.019531 C 53.082031 16.902344 52.433594 16.84375 51.78125 16.84375 C 50.230469 16.847656 48.746094 17.167969 47.332031 17.8125 C 46.796875 16.824219 46.140625 15.925781 45.363281 15.117188 C 44.585938 14.304688 43.714844 13.613281 42.75 13.039062 C 41.785156 12.464844 40.761719 12.027344 39.679688 11.730469 C 38.597656 11.433594 37.492188 11.285156 36.371094 11.285156 Z M 36.371094 11.285156 "/></g><g clip-rule="nonzero" clip-path="url(#af6ac2d57f)"><path style=" stroke:none;fill-rule:nonzero;fill:#ffffff;fill-opacity:1;" d="M 22.816406 15.976562 C 21.996094 15.976562 21.1875 16.054688 20.382812 16.214844 C 19.582031 16.375 18.800781 16.613281 18.042969 16.925781 C 17.289062 17.238281 16.570312 17.621094 15.890625 18.078125 C 15.207031 18.53125 14.578125 19.046875 14 19.628906 C 13.421875 20.207031 12.902344 20.835938 12.449219 21.515625 C 11.992188 22.199219 11.609375 22.917969 11.296875 23.671875 C 10.984375 24.429688 10.746094 25.207031 10.585938 26.011719 C 10.425781 26.8125 10.347656 27.625 10.347656 28.445312 C 10.351562 28.90625 10.378906 29.367188 10.433594 29.824219 C 5.730469 30.667969 2.203125 34.464844 2.203125 39.050781 C 2.203125 44.261719 6.753906 48.457031 12.410156 48.457031 L 48.84375 48.457031 C 54.050781 48.457031 58.246094 44.558594 58.246094 39.714844 C 58.246094 34.902344 54.105469 31.023438 48.941406 30.976562 C 48.859375 30.328125 48.71875 29.695312 48.523438 29.074219 C 48.324219 28.453125 48.074219 27.855469 47.769531 27.277344 C 47.464844 26.703125 47.109375 26.160156 46.707031 25.648438 C 46.300781 25.136719 45.855469 24.664062 45.367188 24.234375 C 44.878906 23.800781 44.355469 23.417969 43.796875 23.082031 C 43.238281 22.746094 42.652344 22.464844 42.042969 22.234375 C 41.433594 22.003906 40.808594 21.828125 40.167969 21.710938 C 39.527344 21.59375 38.878906 21.535156 38.226562 21.535156 C 36.675781 21.539062 35.191406 21.859375 33.777344 22.503906 C 33.242188 21.515625 32.585938 20.617188 31.808594 19.808594 C 31.03125 18.996094 30.160156 18.304688 29.195312 17.730469 C 28.230469 17.15625 27.207031 16.71875 26.125 16.421875 C 25.042969 16.125 23.9375 15.976562 22.816406 15.976562 Z M 22.816406 15.976562 "/></g><path style=" stroke:none;fill-rule:nonzero;fill:#3981bf;fill-opacity:1;" d="M 16.796875 42.539062 C 15.851562 43.609375 13.289062 45.75 12.511719 48.664062 C 12.425781 48.988281 12.402344 49.320312 12.449219 49.65625 C 12.492188 49.992188 12.597656 50.308594 12.769531 50.601562 C 12.9375 50.894531 13.15625 51.144531 13.425781 51.347656 C 13.695312 51.554688 13.992188 51.703125 14.320312 51.789062 C 14.644531 51.878906 14.976562 51.898438 15.3125 51.855469 C 15.648438 51.8125 15.964844 51.703125 16.257812 51.535156 C 16.550781 51.367188 16.800781 51.144531 17.007812 50.878906 C 17.210938 50.609375 17.359375 50.3125 17.445312 49.984375 C 17.453125 49.964844 17.457031 49.941406 17.464844 49.921875 C 18.257812 46.859375 17.082031 43.929688 16.796875 42.539062 Z M 16.796875 42.539062 "/><path style=" stroke:none;fill-rule:nonzero;fill:#3981bf;fill-opacity:1;" d="M 28.472656 42.539062 C 27.523438 43.609375 24.960938 45.75 24.1875 48.664062 C 24.101562 48.988281 24.078125 49.320312 24.121094 49.65625 C 24.167969 49.992188 24.273438 50.308594 24.441406 50.601562 C 24.613281 50.894531 24.832031 51.144531 25.097656 51.347656 C 25.367188 51.554688 25.667969 51.703125 25.992188 51.789062 C 26.320312 51.878906 26.652344 51.898438 26.988281 51.855469 C 27.324219 51.8125 27.636719 51.703125 27.929688 51.535156 C 28.222656 51.367188 28.472656 51.148438 28.679688 50.878906 C 28.886719 50.609375 29.03125 50.3125 29.121094 49.984375 C 29.125 49.964844 29.132812 49.941406 29.136719 49.921875 C 29.929688 46.859375 28.753906 43.929688 28.472656 42.539062 Z M 28.472656 42.539062 "/><path style=" stroke:none;fill-rule:nonzero;fill:#3981bf;fill-opacity:1;" d="M 40.164062 42.851562 C 39.21875 43.921875 36.652344 46.058594 35.878906 48.972656 C 35.792969 49.300781 35.769531 49.632812 35.816406 49.96875 C 35.859375 50.304688 35.964844 50.617188 36.136719 50.910156 C 36.304688 51.207031 36.523438 51.453125 36.792969 51.660156 C 37.0625 51.867188 37.359375 52.015625 37.6875 52.101562 C 38.011719 52.1875 38.34375 52.210938 38.679688 52.167969 C 39.015625 52.121094 39.332031 52.015625 39.625 51.847656 C 39.917969 51.675781 40.167969 51.457031 40.371094 51.191406 C 40.578125 50.921875 40.726562 50.625 40.8125 50.296875 C 40.820312 50.273438 40.824219 50.253906 40.828125 50.230469 C 41.621094 47.171875 40.449219 44.242188 40.164062 42.851562 Z M 40.164062 42.851562 "/><g clip-rule="nonzero" clip-path="url(#74346a957d)"><path style=" stroke:none;fill-rule:nonzero;fill:#3981bf;fill-opacity:1;" d="M 22.644531 53.171875 C 21.695312 54.238281 19.132812 56.378906 18.359375 59.292969 C 18.273438 59.621094 18.25 59.953125 18.296875 60.289062 C 18.339844 60.625 18.445312 60.9375 18.613281 61.230469 C 18.785156 61.523438 19.003906 61.773438 19.273438 61.980469 C 19.539062 62.1875 19.839844 62.332031 20.164062 62.421875 C 20.492188 62.507812 20.824219 62.53125 21.160156 62.484375 C 21.496094 62.441406 21.808594 62.335938 22.105469 62.164062 C 22.398438 61.996094 22.648438 61.777344 22.851562 61.507812 C 23.058594 61.242188 23.207031 60.941406 23.292969 60.617188 C 23.300781 60.59375 23.304688 60.574219 23.308594 60.550781 C 24.101562 57.492188 22.929688 54.558594 22.644531 53.171875 Z M 22.644531 53.171875 "/></g><g clip-rule="nonzero" clip-path="url(#1f4a61e983)"><path style=" stroke:none;fill-rule:nonzero;fill:#3981bf;fill-opacity:1;" d="M 34.316406 53.171875 C 33.371094 54.238281 30.808594 56.378906 30.035156 59.292969 C 29.945312 59.621094 29.925781 59.953125 29.96875 60.289062 C 30.011719 60.625 30.121094 60.9375 30.289062 61.230469 C 30.457031 61.523438 30.675781 61.773438 30.945312 61.980469 C 31.214844 62.1875 31.511719 62.332031 31.839844 62.421875 C 32.167969 62.507812 32.5 62.53125 32.832031 62.484375 C 33.167969 62.441406 33.484375 62.335938 33.777344 62.164062 C 34.070312 61.996094 34.320312 61.777344 34.527344 61.507812 C 34.734375 61.242188 34.878906 60.941406 34.96875 60.617188 C 34.972656 60.59375 34.976562 60.574219 34.984375 60.550781 C 35.777344 57.492188 34.601562 54.558594 34.316406 53.171875 Z M 34.316406 53.171875 "/></g><g style="fill:#3981bf;fill-opacity:1;"><g transform="translate(52.286372, 50.59644)"><path style="stroke:none" d="M 10.6875 -8.9375 C 10.269531 -8.25 9.820312 -7.566406 9.34375 -6.890625 L 8.59375 -5.90625 L 6.96875 -3.59375 L 5.234375 -1.046875 L 4.5625 -0.046875 C 4.332031 0.347656 4.003906 0.523438 3.578125 0.484375 C 3.441406 0.460938 3.296875 0.421875 3.140625 0.359375 C 2.867188 0.203125 2.453125 0.03125 1.890625 -0.15625 L 1.6875 -0.234375 C 1.375 -0.347656 1.191406 -0.519531 1.140625 -0.75 C 1.054688 -0.988281 1.125 -1.265625 1.34375 -1.578125 L 1.453125 -1.703125 C 2.085938 -2.554688 2.664062 -3.351562 3.1875 -4.09375 L 3.1875 -4.125 C 3.71875 -4.851562 4.015625 -5.289062 4.078125 -5.4375 C 4.140625 -5.582031 4.21875 -5.710938 4.3125 -5.828125 C 4.976562 -6.609375 5.632812 -7.582031 6.28125 -8.75 C 6.46875 -9.0625 6.796875 -9.515625 7.265625 -10.109375 C 7.460938 -10.367188 7.640625 -10.613281 7.796875 -10.84375 L 8.390625 -11.734375 C 8.484375 -11.890625 8.628906 -12.117188 8.828125 -12.421875 C 9.296875 -13.066406 9.648438 -13.519531 9.890625 -13.78125 C 10.035156 -13.925781 10.21875 -14.1875 10.4375 -14.5625 C 10.5625 -14.789062 10.75 -15.054688 11 -15.359375 C 11.332031 -15.753906 11.65625 -16.234375 11.96875 -16.796875 C 12.226562 -17.429688 12.703125 -17.71875 13.390625 -17.65625 L 15.125 -17.46875 C 15.46875 -17.40625 15.707031 -17.253906 15.84375 -17.015625 C 15.976562 -16.773438 15.976562 -16.472656 15.84375 -16.109375 C 15.738281 -15.890625 15.644531 -15.734375 15.5625 -15.640625 L 14.9375 -14.734375 C 14.625 -14.253906 14.28125 -13.78125 13.90625 -13.3125 C 12.601562 -11.6875 11.703125 -10.476562 11.203125 -9.6875 C 10.984375 -9.351562 10.8125 -9.101562 10.6875 -8.9375 Z M 15 -3.8125 C 15.363281 -2.914062 15.328125 -2.085938 14.890625 -1.328125 L 14.8125 -1.21875 C 14.40625 -0.507812 14.050781 -0.0195312 13.75 0.25 C 13.144531 0.800781 12.429688 1.035156 11.609375 0.953125 C 11.203125 0.910156 10.851562 0.800781 10.5625 0.625 L 10.359375 0.53125 L 10.15625 0.390625 C 9.59375 0.109375 9.207031 -0.222656 9 -0.609375 C 8.789062 -0.984375 8.707031 -1.484375 8.75 -2.109375 C 8.820312 -3.390625 9.484375 -4.328125 10.734375 -4.921875 C 11.390625 -5.242188 12.109375 -5.40625 12.890625 -5.40625 L 13.09375 -5.375 C 13.976562 -5.289062 14.613281 -4.769531 15 -3.8125 Z M 4.15625 -12.515625 C 3.945312 -12.535156 3.738281 -12.582031 3.53125 -12.65625 C 2.832031 -12.9375 2.320312 -13.347656 2 -13.890625 C 1.65625 -14.429688 1.539062 -15.054688 1.65625 -15.765625 C 1.707031 -16.304688 1.867188 -16.84375 2.140625 -17.375 C 2.441406 -17.988281 2.890625 -18.359375 3.484375 -18.484375 C 3.921875 -18.578125 4.363281 -18.601562 4.8125 -18.5625 C 5.1875 -18.519531 5.554688 -18.429688 5.921875 -18.296875 C 6.492188 -18.015625 6.914062 -17.492188 7.1875 -16.734375 C 7.4375 -16.046875 7.425781 -15.441406 7.15625 -14.921875 L 7.125 -14.859375 C 6.882812 -14.328125 6.691406 -13.941406 6.546875 -13.703125 C 6.296875 -13.285156 5.960938 -12.976562 5.546875 -12.78125 C 5.109375 -12.550781 4.644531 -12.460938 4.15625 -12.515625 Z M 11.5625 -1.25 L 11.75 -0.96875 C 11.832031 -0.988281 11.90625 -1.050781 11.96875 -1.15625 C 12 -1.226562 12.097656 -1.441406 12.265625 -1.796875 L 12.34375 -1.96875 C 12.507812 -2.3125 12.519531 -2.71875 12.375 -3.1875 C 11.914062 -2.664062 11.644531 -2.140625 11.5625 -1.609375 L 11.5625 -1.53125 C 11.550781 -1.5 11.554688 -1.445312 11.578125 -1.375 C 11.566406 -1.3125 11.5625 -1.269531 11.5625 -1.25 Z M 4.625 -15.375 C 4.65625 -15.601562 4.65625 -15.785156 4.625 -15.921875 C 4.5 -15.585938 4.429688 -15.300781 4.421875 -15.0625 C 4.453125 -14.957031 4.472656 -14.894531 4.484375 -14.875 C 4.554688 -15.007812 4.601562 -15.164062 4.625 -15.34375 Z M 4.625 -15.375 "/></g></g></g></svg>