<svg xmlns="http://www.w3.org/2000/svg" xmlns:xlink="http://www.w3.org/1999/xlink" width="100" zoomAndPan="magnify" viewBox="0 0 75.119995 83.04" height="100" preserveAspectRatio="xMidYMid meet" version="1.2"><defs><clipPath id="128fa484d7"><path d="M 33 7.417969 L 36 7.417969 L 36 15 L 33 15 Z M 33 7.417969 "/></clipPath><clipPath id="ac1ff05300"><path d="M 33 45 L 36 45 L 36 52.640625 L 33 52.640625 Z M 33 45 "/></clipPath><clipPath id="607b8d7167"><path d="M 12.257812 29 L 20 29 L 20 31 L 12.257812 31 Z M 12.257812 29 "/></clipPath><clipPath id="ec1d48302d"><path d="M 50 29 L 57.476562 29 L 57.476562 31 L 50 31 Z M 50 29 "/></clipPath><clipPath id="80686de9c1"><path d="M 18 25.570312 L 73 25.570312 L 73 60 L 18 60 Z M 18 25.570312 "/></clipPath><clipPath id="a1110cb68d"><path d="M 1.125 32 L 56 32 L 56 67 L 1.125 67 Z M 1.125 32 "/></clipPath></defs><g id="fab20df19c"><path style=" stroke:none;fill-rule:evenodd;fill:#f4c519;fill-opacity:1;" d="M 34.867188 16.640625 C 42.261719 16.640625 48.253906 22.636719 48.253906 30.03125 C 48.253906 37.421875 42.261719 43.417969 34.867188 43.417969 C 27.472656 43.417969 21.480469 37.421875 21.480469 30.03125 C 21.480469 22.636719 27.472656 16.640625 34.867188 16.640625 Z M 34.867188 16.640625 "/><path style=" stroke:none;fill-rule:evenodd;fill:#f8cb16;fill-opacity:1;" d="M 34.867188 16.640625 C 37.804688 16.640625 40.519531 17.589844 42.726562 19.191406 C 43.53125 20.910156 43.980469 22.832031 43.980469 24.855469 C 43.980469 32.25 37.984375 38.242188 30.59375 38.242188 C 27.65625 38.242188 24.941406 37.296875 22.734375 35.695312 C 21.929688 33.972656 21.480469 32.054688 21.480469 30.03125 C 21.480469 22.636719 27.472656 16.640625 34.867188 16.640625 Z M 34.867188 16.640625 "/><g clip-rule="nonzero" clip-path="url(#128fa484d7)"><path style=" stroke:none;fill-rule:evenodd;fill:#f8cb16;fill-opacity:1;" d="M 34.867188 7.417969 C 35.375 7.417969 35.792969 7.835938 35.792969 8.34375 L 35.792969 13.71875 C 35.792969 14.226562 35.375 14.644531 34.867188 14.644531 C 34.359375 14.644531 33.941406 14.226562 33.941406 13.71875 L 33.941406 8.34375 C 33.941406 7.835938 34.359375 7.417969 34.867188 7.417969 Z M 34.867188 7.417969 "/></g><g clip-rule="nonzero" clip-path="url(#ac1ff05300)"><path style=" stroke:none;fill-rule:evenodd;fill:#f8cb16;fill-opacity:1;" d="M 34.867188 45.417969 C 35.375 45.417969 35.792969 45.832031 35.792969 46.339844 L 35.792969 51.714844 C 35.792969 52.222656 35.375 52.640625 34.867188 52.640625 C 34.359375 52.640625 33.941406 52.222656 33.941406 51.714844 L 33.941406 46.339844 C 33.941406 45.832031 34.359375 45.417969 34.867188 45.417969 Z M 34.867188 45.417969 "/></g><path style=" stroke:none;fill-rule:evenodd;fill:#f8cb16;fill-opacity:1;" d="M 43.652344 9.195312 C 44.121094 9.394531 44.339844 9.9375 44.144531 10.40625 L 42.054688 15.359375 C 41.859375 15.828125 41.3125 16.050781 40.84375 15.851562 C 40.375 15.652344 40.15625 15.109375 40.351562 14.640625 L 42.441406 9.6875 C 42.636719 9.21875 43.183594 9 43.652344 9.195312 Z M 43.652344 9.195312 "/><path style=" stroke:none;fill-rule:evenodd;fill:#f8cb16;fill-opacity:1;" d="M 28.890625 44.207031 C 29.359375 44.40625 29.578125 44.949219 29.382812 45.417969 L 27.292969 50.371094 C 27.097656 50.839844 26.550781 51.0625 26.082031 50.863281 C 25.613281 50.664062 25.390625 50.121094 25.589844 49.652344 L 27.679688 44.699219 C 27.875 44.230469 28.421875 44.011719 28.890625 44.207031 Z M 28.890625 44.207031 "/><path style=" stroke:none;fill-rule:evenodd;fill:#f8cb16;fill-opacity:1;" d="M 50.855469 14.042969 C 51.214844 14.402344 51.214844 14.988281 50.855469 15.347656 L 47.054688 19.148438 C 46.695312 19.507812 46.105469 19.507812 45.746094 19.148438 C 45.386719 18.789062 45.386719 18.203125 45.746094 17.84375 L 49.546875 14.042969 C 49.90625 13.683594 50.496094 13.683594 50.855469 14.042969 Z M 50.855469 14.042969 "/><path style=" stroke:none;fill-rule:evenodd;fill:#f8cb16;fill-opacity:1;" d="M 23.988281 40.910156 C 24.347656 41.269531 24.347656 41.859375 23.988281 42.21875 L 20.1875 46.015625 C 19.828125 46.378906 19.238281 46.378906 18.878906 46.015625 C 18.519531 45.65625 18.519531 45.070312 18.878906 44.710938 L 22.679688 40.910156 C 23.039062 40.550781 23.628906 40.550781 23.988281 40.910156 Z M 23.988281 40.910156 "/><path style=" stroke:none;fill-rule:evenodd;fill:#f8cb16;fill-opacity:1;" d="M 55.808594 21.507812 C 56.003906 21.980469 55.773438 22.523438 55.300781 22.714844 L 50.324219 24.738281 C 49.851562 24.929688 49.3125 24.703125 49.121094 24.230469 C 48.929688 23.761719 49.15625 23.21875 49.628906 23.027344 L 54.605469 21 C 55.078125 20.808594 55.617188 21.039062 55.808594 21.507812 Z M 55.808594 21.507812 "/><path style=" stroke:none;fill-rule:evenodd;fill:#f8cb16;fill-opacity:1;" d="M 20.613281 35.828125 C 20.804688 36.300781 20.578125 36.839844 20.105469 37.03125 L 15.128906 39.058594 C 14.65625 39.25 14.117188 39.019531 13.921875 38.550781 C 13.730469 38.078125 13.960938 37.535156 14.433594 37.34375 L 19.410156 35.320312 C 19.882812 35.128906 20.421875 35.355469 20.613281 35.828125 Z M 20.613281 35.828125 "/><g clip-rule="nonzero" clip-path="url(#607b8d7167)"><path style=" stroke:none;fill-rule:evenodd;fill:#f8cb16;fill-opacity:1;" d="M 12.257812 30.03125 C 12.257812 29.519531 12.671875 29.105469 13.179688 29.105469 L 18.554688 29.105469 C 19.0625 29.105469 19.480469 29.519531 19.480469 30.03125 C 19.480469 30.539062 19.0625 30.953125 18.554688 30.953125 L 13.179688 30.953125 C 12.671875 30.953125 12.257812 30.539062 12.257812 30.03125 Z M 12.257812 30.03125 "/></g><g clip-rule="nonzero" clip-path="url(#ec1d48302d)"><path style=" stroke:none;fill-rule:evenodd;fill:#f8cb16;fill-opacity:1;" d="M 50.253906 30.03125 C 50.253906 29.519531 50.667969 29.105469 51.179688 29.105469 L 56.550781 29.105469 C 57.0625 29.105469 57.476562 29.519531 57.476562 30.03125 C 57.476562 30.539062 57.0625 30.953125 56.550781 30.953125 L 51.179688 30.953125 C 50.667969 30.953125 50.253906 30.539062 50.253906 30.03125 Z M 50.253906 30.03125 "/></g><path style=" stroke:none;fill-rule:evenodd;fill:#f8cb16;fill-opacity:1;" d="M 14.03125 21.246094 C 14.230469 20.777344 14.777344 20.554688 15.246094 20.753906 L 20.195312 22.839844 C 20.664062 23.039062 20.886719 23.582031 20.6875 24.050781 C 20.492188 24.519531 19.945312 24.742188 19.476562 24.542969 L 14.527344 22.457031 C 14.058594 22.257812 13.835938 21.714844 14.03125 21.246094 Z M 14.03125 21.246094 "/><path style=" stroke:none;fill-rule:evenodd;fill:#f8cb16;fill-opacity:1;" d="M 49.046875 36.007812 C 49.242188 35.539062 49.789062 35.316406 50.257812 35.515625 L 55.207031 37.601562 C 55.675781 37.800781 55.898438 38.34375 55.699219 38.8125 C 55.503906 39.28125 54.957031 39.503906 54.488281 39.308594 L 49.539062 37.21875 C 49.070312 37.019531 48.847656 36.476562 49.046875 36.007812 Z M 49.046875 36.007812 "/><path style=" stroke:none;fill-rule:evenodd;fill:#f8cb16;fill-opacity:1;" d="M 18.878906 14.042969 C 19.238281 13.683594 19.828125 13.683594 20.1875 14.042969 L 23.988281 17.84375 C 24.347656 18.203125 24.347656 18.789062 23.988281 19.148438 C 23.628906 19.507812 23.039062 19.507812 22.679688 19.148438 L 18.878906 15.347656 C 18.519531 14.988281 18.519531 14.402344 18.878906 14.042969 Z M 18.878906 14.042969 "/><path style=" stroke:none;fill-rule:evenodd;fill:#f8cb16;fill-opacity:1;" d="M 45.746094 40.910156 C 46.105469 40.550781 46.695312 40.550781 47.054688 40.910156 L 50.855469 44.710938 C 51.214844 45.070312 51.214844 45.65625 50.855469 46.015625 C 50.496094 46.378906 49.90625 46.378906 49.546875 46.015625 L 45.746094 42.21875 C 45.386719 41.859375 45.386719 41.269531 45.746094 40.910156 Z M 45.746094 40.910156 "/><path style=" stroke:none;fill-rule:evenodd;fill:#f8cb16;fill-opacity:1;" d="M 26.347656 9.085938 C 26.816406 8.894531 27.359375 9.125 27.550781 9.59375 L 29.578125 14.574219 C 29.769531 15.042969 29.539062 15.585938 29.070312 15.777344 C 28.597656 15.96875 28.054688 15.742188 27.863281 15.269531 L 25.839844 10.292969 C 25.648438 9.820312 25.875 9.277344 26.347656 9.085938 Z M 26.347656 9.085938 "/><path style=" stroke:none;fill-rule:evenodd;fill:#f8cb16;fill-opacity:1;" d="M 40.664062 44.28125 C 41.136719 44.089844 41.679688 44.320312 41.871094 44.789062 L 43.894531 49.769531 C 44.085938 50.238281 43.859375 50.78125 43.386719 50.972656 C 42.917969 51.164062 42.375 50.9375 42.183594 50.464844 L 40.15625 45.488281 C 39.964844 45.015625 40.195312 44.472656 40.664062 44.28125 Z M 40.664062 44.28125 "/><g clip-rule="nonzero" clip-path="url(#80686de9c1)"><path style=" stroke:none;fill-rule:nonzero;fill:#cbc8c8;fill-opacity:1;" d="M 28.8125 39.632812 L 29.613281 39.632812 C 30.414062 36.273438 33.4375 33.761719 37.054688 33.761719 C 37.933594 33.761719 38.824219 33.957031 39.558594 34.199219 C 41.328125 29.179688 46.121094 25.574219 51.769531 25.574219 C 58.921875 25.574219 64.71875 31.34375 64.71875 38.460938 C 64.71875 38.910156 64.695312 39.347656 64.652344 39.785156 C 69.355469 40.597656 72.960938 44.6875 72.960938 49.585938 C 72.960938 55.0625 68.460938 59.546875 62.957031 59.546875 L 28.816406 59.546875 C 23.3125 59.546875 18.8125 55.066406 18.8125 49.585938 C 18.808594 44.113281 23.308594 39.632812 28.8125 39.632812 Z M 28.8125 39.632812 "/></g><g clip-rule="nonzero" clip-path="url(#a1110cb68d)"><path style=" stroke:none;fill-rule:nonzero;fill:#ffffff;fill-opacity:1;" d="M 45.308594 46.800781 L 44.503906 46.800781 C 43.707031 43.445312 40.683594 40.929688 37.066406 40.929688 C 36.1875 40.929688 35.296875 41.125 34.558594 41.371094 C 32.792969 36.347656 28 32.742188 22.351562 32.742188 C 15.199219 32.742188 9.398438 38.511719 9.398438 45.628906 C 9.398438 46.078125 9.425781 46.519531 9.46875 46.957031 C 4.765625 47.765625 1.160156 51.855469 1.160156 56.753906 C 1.160156 62.230469 5.660156 66.714844 11.164062 66.714844 L 45.300781 66.714844 C 50.804688 66.714844 55.308594 62.234375 55.308594 56.753906 C 55.3125 51.28125 50.808594 46.800781 45.308594 46.800781 Z M 45.308594 46.800781 "/></g></g></svg>