<svg xmlns="http://www.w3.org/2000/svg" xmlns:xlink="http://www.w3.org/1999/xlink" width="100" zoomAndPan="magnify" viewBox="0 0 75.119995 83.04" height="100" preserveAspectRatio="xMidYMid meet" version="1.2"><defs><clipPath id="88ccc93674"><path d="M 8.527344 13.289062 L 65.59375 13.289062 L 65.59375 47 L 8.527344 47 Z M 8.527344 13.289062 "/></clipPath></defs><g id="35e7a64cef"><path style=" stroke:none;fill-rule:evenodd;fill:#3981bf;fill-opacity:1;" d="M 49.863281 50.105469 C 49.863281 50.105469 51.757812 55.414062 51.261719 57.449219 C 50.851562 59.132812 49.164062 60.175781 47.503906 59.773438 C 45.835938 59.371094 44.824219 57.675781 45.234375 55.992188 C 45.734375 53.953125 49.863281 50.105469 49.863281 50.105469 Z M 49.863281 50.105469 "/><path style=" stroke:none;fill-rule:evenodd;fill:#3981bf;fill-opacity:1;" d="M 37.914062 49.945312 C 37.914062 49.945312 39.808594 55.253906 39.308594 57.292969 C 38.898438 58.976562 37.214844 60.019531 35.554688 59.617188 C 33.886719 59.210938 32.875 57.515625 33.285156 55.832031 C 33.78125 53.796875 37.914062 49.945312 37.914062 49.945312 Z M 37.914062 49.945312 "/><path style=" stroke:none;fill-rule:evenodd;fill:#3981bf;fill-opacity:1;" d="M 25.496094 49.78125 C 25.496094 49.78125 27.390625 55.089844 26.894531 57.125 C 26.480469 58.808594 24.796875 59.851562 23.136719 59.449219 C 21.46875 59.046875 20.457031 57.351562 20.871094 55.667969 C 21.367188 53.628906 25.496094 49.78125 25.496094 49.78125 Z M 25.496094 49.78125 "/><g clip-rule="nonzero" clip-path="url(#88ccc93674)"><path style=" stroke:none;fill-rule:evenodd;fill:#ffffff;fill-opacity:1;" d="M 57 28.929688 C 61.738281 28.929688 65.59375 32.808594 65.59375 37.574219 C 65.59375 42.335938 61.738281 46.214844 57 46.214844 L 19.644531 46.214844 C 13.695312 46.214844 8.859375 41.347656 8.859375 35.367188 C 8.859375 29.382812 13.695312 24.515625 19.644531 24.515625 C 20.75 24.515625 21.851562 24.6875 22.910156 25.027344 L 23.601562 25.246094 L 23.847656 24.558594 C 26.128906 18.101562 32.230469 13.765625 39.027344 13.765625 C 47.339844 13.765625 54.238281 20.027344 55.074219 28.332031 L 55.152344 29.105469 L 55.914062 29.007812 C 56.335938 28.957031 56.683594 28.929688 57 28.929688 Z M 57 28.929688 "/></g></g></svg>