<svg xmlns="http://www.w3.org/2000/svg" xmlns:xlink="http://www.w3.org/1999/xlink" width="100" zoomAndPan="magnify" viewBox="0 0 75.119995 83.04" height="100" preserveAspectRatio="xMidYMid meet" version="1.2"><defs><clipPath id="f77f7c4867"><path d="M 36 19 L 56.164062 19 L 56.164062 48 L 36 48 Z M 36 19 "/></clipPath><clipPath id="da1cf2aff6"><path d="M 17.617188 12.910156 L 51 12.910156 L 51 61 L 17.617188 61 Z M 17.617188 12.910156 "/></clipPath></defs><g id="a993c1ae8a"><g clip-rule="nonzero" clip-path="url(#f77f7c4867)"><path style=" stroke:none;fill-rule:nonzero;fill:#02b0e9;fill-opacity:1;" d="M 36.5 37.769531 C 36.5 33.265625 43.171875 23.273438 45.523438 19.886719 C 45.613281 19.753906 45.730469 19.648438 45.875 19.570312 C 46.019531 19.496094 46.171875 19.460938 46.332031 19.460938 C 46.496094 19.460938 46.648438 19.496094 46.789062 19.570312 C 46.933594 19.648438 47.050781 19.753906 47.144531 19.886719 C 49.496094 23.273438 56.164062 33.265625 56.164062 37.769531 C 56.164062 38.417969 56.101562 39.0625 55.976562 39.699219 C 55.847656 40.335938 55.664062 40.953125 55.414062 41.554688 C 55.167969 42.152344 54.867188 42.722656 54.507812 43.261719 C 54.148438 43.804688 53.738281 44.304688 53.285156 44.761719 C 52.828125 45.222656 52.332031 45.632812 51.792969 45.992188 C 51.257812 46.351562 50.691406 46.65625 50.09375 46.90625 C 49.5 47.15625 48.882812 47.34375 48.25 47.46875 C 47.617188 47.59375 46.976562 47.660156 46.332031 47.660156 C 45.6875 47.660156 45.046875 47.59375 44.414062 47.46875 C 43.78125 47.34375 43.167969 47.15625 42.570312 46.90625 C 41.976562 46.65625 41.410156 46.351562 40.871094 45.992188 C 40.335938 45.632812 39.839844 45.222656 39.382812 44.761719 C 38.925781 44.304688 38.519531 43.804688 38.160156 43.261719 C 37.800781 42.722656 37.496094 42.152344 37.25 41.554688 C 37.003906 40.953125 36.816406 40.335938 36.691406 39.699219 C 36.5625 39.0625 36.5 38.417969 36.5 37.769531 Z M 36.5 37.769531 "/></g><g clip-rule="nonzero" clip-path="url(#da1cf2aff6)"><path style=" stroke:none;fill-rule:nonzero;fill:#1cc7ff;fill-opacity:1;" d="M 17.648438 43.65625 C 17.648438 36.105469 28.839844 19.328125 32.789062 13.644531 C 32.867188 13.535156 32.953125 13.4375 33.054688 13.347656 C 33.15625 13.257812 33.265625 13.183594 33.382812 13.121094 C 33.5 13.058594 33.625 13.011719 33.753906 12.980469 C 33.882812 12.945312 34.015625 12.929688 34.148438 12.929688 C 34.28125 12.929688 34.414062 12.945312 34.542969 12.980469 C 34.671875 13.011719 34.796875 13.058594 34.917969 13.121094 C 35.035156 13.183594 35.144531 13.257812 35.242188 13.347656 C 35.34375 13.4375 35.433594 13.535156 35.507812 13.644531 C 39.460938 19.328125 50.652344 36.101562 50.652344 43.65625 C 50.652344 44.199219 50.625 44.742188 50.570312 45.285156 C 50.519531 45.824219 50.4375 46.363281 50.335938 46.894531 C 50.230469 47.429688 50.097656 47.957031 49.941406 48.476562 C 49.785156 48.996094 49.601562 49.507812 49.394531 50.011719 C 49.1875 50.511719 48.957031 51.003906 48.703125 51.484375 C 48.449219 51.964844 48.171875 52.429688 47.871094 52.882812 C 47.570312 53.335938 47.25 53.769531 46.90625 54.191406 C 46.5625 54.609375 46.199219 55.015625 45.816406 55.398438 C 45.4375 55.78125 45.035156 56.148438 44.617188 56.492188 C 44.199219 56.835938 43.765625 57.160156 43.316406 57.464844 C 42.867188 57.765625 42.40625 58.046875 41.929688 58.300781 C 41.453125 58.558594 40.964844 58.789062 40.464844 59 C 39.964844 59.207031 39.457031 59.390625 38.9375 59.546875 C 38.421875 59.707031 37.898438 59.835938 37.367188 59.941406 C 36.839844 60.050781 36.304688 60.128906 35.765625 60.183594 C 35.230469 60.234375 34.691406 60.261719 34.148438 60.261719 C 33.609375 60.261719 33.070312 60.234375 32.53125 60.183594 C 31.992188 60.128906 31.460938 60.050781 30.929688 59.941406 C 30.398438 59.835938 29.875 59.707031 29.359375 59.546875 C 28.839844 59.390625 28.332031 59.207031 27.835938 59 C 27.335938 58.789062 26.847656 58.558594 26.371094 58.300781 C 25.894531 58.046875 25.429688 57.765625 24.980469 57.464844 C 24.53125 57.160156 24.097656 56.835938 23.679688 56.492188 C 23.261719 56.148438 22.863281 55.78125 22.480469 55.398438 C 22.097656 55.015625 21.734375 54.609375 21.394531 54.191406 C 21.050781 53.769531 20.730469 53.335938 20.429688 52.882812 C 20.128906 52.429688 19.851562 51.964844 19.597656 51.484375 C 19.339844 51.003906 19.109375 50.511719 18.902344 50.011719 C 18.695312 49.507812 18.515625 48.996094 18.359375 48.476562 C 18.199219 47.957031 18.070312 47.429688 17.964844 46.894531 C 17.859375 46.363281 17.78125 45.824219 17.726562 45.285156 C 17.671875 44.742188 17.648438 44.199219 17.648438 43.65625 Z M 17.648438 43.65625 "/></g><path style=" stroke:none;fill-rule:nonzero;fill:#02b0e9;fill-opacity:1;" d="M 47.40625 43.65625 C 47.40625 44.53125 47.324219 45.398438 47.152344 46.257812 C 46.984375 47.117188 46.734375 47.953125 46.398438 48.761719 C 46.066406 49.574219 45.660156 50.339844 45.175781 51.070312 C 44.691406 51.800781 44.140625 52.472656 43.527344 53.09375 C 42.910156 53.710938 42.242188 54.265625 41.515625 54.753906 C 40.792969 55.238281 40.027344 55.652344 39.222656 55.988281 C 38.417969 56.320312 37.589844 56.574219 36.734375 56.746094 C 35.882812 56.917969 35.019531 57.003906 34.148438 57.003906 C 33.277344 57.003906 32.417969 56.917969 31.5625 56.746094 C 30.707031 56.574219 29.878906 56.320312 29.074219 55.988281 C 28.269531 55.652344 27.503906 55.238281 26.78125 54.753906 C 26.058594 54.265625 25.386719 53.710938 24.773438 53.09375 C 24.15625 52.472656 23.605469 51.800781 23.125 51.070312 C 22.640625 50.339844 22.230469 49.574219 21.898438 48.761719 C 21.566406 47.953125 21.316406 47.117188 21.144531 46.257812 C 20.976562 45.398438 20.890625 44.53125 20.890625 43.65625 C 20.890625 42.300781 21.433594 40.316406 22.449219 37.839844 C 22.972656 38.035156 23.515625 38.125 24.078125 38.109375 C 26.589844 38.109375 26.589844 36.707031 29.105469 36.707031 C 31.621094 36.707031 31.628906 38.109375 34.140625 38.109375 C 36.65625 38.109375 36.65625 36.707031 39.175781 36.707031 C 41.699219 36.707031 41.691406 38.109375 44.203125 38.109375 C 44.769531 38.121094 45.3125 38.03125 45.84375 37.832031 C 46.863281 40.316406 47.40625 42.300781 47.40625 43.65625 Z M 47.40625 43.65625 "/><path style=" stroke:none;fill-rule:nonzero;fill:#ffffff;fill-opacity:1;" d="M 40.816406 29.582031 C 40.929688 29.777344 41.09375 29.90625 41.308594 29.964844 C 41.523438 30.023438 41.730469 29.996094 41.925781 29.886719 C 42.117188 29.773438 42.246094 29.609375 42.304688 29.394531 C 42.363281 29.175781 42.339844 28.96875 42.226562 28.773438 C 41.261719 27.0625 40.1875 25.261719 39.039062 23.417969 C 38.917969 23.226562 38.75 23.109375 38.53125 23.058594 C 38.3125 23.007812 38.109375 23.042969 37.917969 23.160156 C 37.730469 23.28125 37.609375 23.449219 37.558594 23.671875 C 37.511719 23.890625 37.542969 24.09375 37.664062 24.285156 C 38.800781 26.109375 39.863281 27.890625 40.816406 29.582031 Z M 40.816406 29.582031 "/><path style=" stroke:none;fill-rule:nonzero;fill:#ffffff;fill-opacity:1;" d="M 29.832031 51.886719 L 39.5625 42.910156 C 39.726562 42.757812 39.816406 42.570312 39.824219 42.34375 C 39.835938 42.117188 39.765625 41.921875 39.613281 41.757812 C 39.460938 41.589844 39.273438 41.503906 39.050781 41.492188 C 38.824219 41.484375 38.632812 41.554688 38.464844 41.707031 L 28.734375 50.683594 C 28.570312 50.835938 28.484375 51.023438 28.472656 51.25 C 28.464844 51.476562 28.535156 51.671875 28.6875 51.835938 C 28.835938 52.003906 29.023438 52.089844 29.25 52.101562 C 29.472656 52.109375 29.667969 52.039062 29.832031 51.886719 Z M 29.832031 51.886719 "/><path style=" stroke:none;fill-rule:nonzero;fill:#ffffff;fill-opacity:1;" d="M 28.472656 43.941406 C 28.472656 44.265625 28.535156 44.578125 28.65625 44.878906 C 28.78125 45.179688 28.957031 45.441406 29.183594 45.671875 C 29.414062 45.902344 29.675781 46.078125 29.972656 46.203125 C 30.273438 46.328125 30.582031 46.390625 30.90625 46.390625 C 31.226562 46.390625 31.539062 46.328125 31.835938 46.203125 C 32.132812 46.078125 32.398438 45.902344 32.625 45.671875 C 32.855469 45.441406 33.03125 45.179688 33.152344 44.878906 C 33.277344 44.578125 33.339844 44.265625 33.339844 43.941406 C 33.339844 43.617188 33.277344 43.304688 33.152344 43.003906 C 33.03125 42.703125 32.855469 42.441406 32.625 42.210938 C 32.398438 41.980469 32.132812 41.804688 31.835938 41.679688 C 31.539062 41.554688 31.226562 41.492188 30.90625 41.492188 C 30.582031 41.492188 30.273438 41.554688 29.972656 41.679688 C 29.675781 41.804688 29.414062 41.980469 29.183594 42.210938 C 28.957031 42.441406 28.78125 42.703125 28.65625 43.003906 C 28.535156 43.304688 28.472656 43.617188 28.472656 43.941406 Z M 30.90625 43.125 C 31.128906 43.125 31.320312 43.203125 31.480469 43.363281 C 31.636719 43.523438 31.714844 43.714844 31.714844 43.941406 C 31.714844 44.167969 31.636719 44.359375 31.480469 44.519531 C 31.320312 44.675781 31.128906 44.757812 30.90625 44.757812 C 30.679688 44.757812 30.492188 44.675781 30.332031 44.519531 C 30.171875 44.359375 30.09375 44.167969 30.09375 43.941406 C 30.09375 43.714844 30.171875 43.523438 30.332031 43.363281 C 30.492188 43.203125 30.679688 43.125 30.90625 43.125 Z M 30.90625 43.125 "/><path style=" stroke:none;fill-rule:nonzero;fill:#ffffff;fill-opacity:1;" d="M 39.824219 49.652344 C 39.824219 49.328125 39.765625 49.015625 39.640625 48.714844 C 39.515625 48.417969 39.339844 48.152344 39.113281 47.921875 C 38.886719 47.691406 38.621094 47.515625 38.324219 47.390625 C 38.027344 47.265625 37.714844 47.207031 37.394531 47.207031 C 37.070312 47.207031 36.761719 47.265625 36.460938 47.390625 C 36.164062 47.515625 35.902344 47.691406 35.671875 47.921875 C 35.445312 48.152344 35.269531 48.417969 35.144531 48.714844 C 35.023438 49.015625 34.960938 49.328125 34.960938 49.652344 C 34.960938 49.976562 35.023438 50.289062 35.144531 50.589844 C 35.269531 50.890625 35.445312 51.15625 35.671875 51.382812 C 35.902344 51.613281 36.164062 51.792969 36.460938 51.914062 C 36.761719 52.039062 37.070312 52.101562 37.394531 52.101562 C 37.714844 52.101562 38.027344 52.039062 38.324219 51.914062 C 38.621094 51.792969 38.886719 51.613281 39.113281 51.382812 C 39.339844 51.15625 39.515625 50.890625 39.640625 50.589844 C 39.765625 50.289062 39.824219 49.976562 39.824219 49.652344 Z M 37.394531 50.46875 C 37.167969 50.46875 36.976562 50.390625 36.820312 50.230469 C 36.660156 50.070312 36.582031 49.878906 36.582031 49.652344 C 36.582031 49.429688 36.660156 49.234375 36.820312 49.078125 C 36.976562 48.917969 37.167969 48.835938 37.394531 48.835938 C 37.617188 48.835938 37.808594 48.917969 37.964844 49.078125 C 38.125 49.234375 38.203125 49.429688 38.203125 49.652344 C 38.203125 49.878906 38.125 50.070312 37.964844 50.230469 C 37.808594 50.390625 37.617188 50.46875 37.394531 50.46875 Z M 37.394531 50.46875 "/><path style=" stroke:none;fill-rule:nonzero;fill:#ffffff;fill-opacity:1;" d="M 43.878906 31.699219 C 43.878906 31.925781 43.800781 32.117188 43.640625 32.277344 C 43.484375 32.4375 43.292969 32.515625 43.070312 32.515625 C 42.84375 32.515625 42.652344 32.4375 42.496094 32.277344 C 42.335938 32.117188 42.257812 31.925781 42.257812 31.699219 C 42.257812 31.476562 42.335938 31.28125 42.496094 31.125 C 42.652344 30.964844 42.84375 30.882812 43.070312 30.882812 C 43.292969 30.882812 43.484375 30.964844 43.640625 31.125 C 43.800781 31.28125 43.878906 31.476562 43.878906 31.699219 Z M 43.878906 31.699219 "/></g></svg>