<svg xmlns="http://www.w3.org/2000/svg" xmlns:xlink="http://www.w3.org/1999/xlink" width="100" zoomAndPan="magnify" viewBox="0 0 75.119995 83.04" height="100" preserveAspectRatio="xMidYMid meet" version="1.2"><defs><clipPath id="4d5008e560"><path d="M 15 11.261719 L 71.382812 11.261719 L 71.382812 44 L 15 44 Z M 15 11.261719 "/></clipPath><clipPath id="6404207463"><path d="M 2.441406 16 L 58 16 L 58 49 L 2.441406 49 Z M 2.441406 16 "/></clipPath></defs><g id="650104a047"><g clip-rule="nonzero" clip-path="url(#4d5008e560)"><path style=" stroke:none;fill-rule:nonzero;fill:#cbc8c8;fill-opacity:1;" d="M 36.289062 11.460938 C 35.480469 11.460938 34.675781 11.539062 33.878906 11.695312 C 33.085938 11.855469 32.3125 12.089844 31.5625 12.398438 C 30.816406 12.710938 30.101562 13.089844 29.429688 13.542969 C 28.753906 13.992188 28.128906 14.503906 27.558594 15.078125 C 26.984375 15.652344 26.472656 16.273438 26.019531 16.949219 C 25.570312 17.621094 25.191406 18.335938 24.878906 19.082031 C 24.570312 19.832031 24.335938 20.605469 24.175781 21.398438 C 24.019531 22.195312 23.941406 23 23.941406 23.808594 C 23.941406 24.265625 23.972656 24.722656 24.023438 25.175781 C 19.367188 26.011719 15.871094 29.773438 15.871094 34.316406 C 15.871094 39.476562 20.382812 43.628906 25.984375 43.628906 L 62.070312 43.628906 C 67.230469 43.628906 71.382812 39.769531 71.382812 34.972656 C 71.382812 30.207031 67.28125 26.367188 62.164062 26.316406 C 62.082031 25.675781 61.945312 25.050781 61.75 24.433594 C 61.554688 23.820312 61.308594 23.226562 61.003906 22.65625 C 60.703125 22.085938 60.351562 21.546875 59.953125 21.039062 C 59.550781 20.53125 59.109375 20.066406 58.625 19.640625 C 58.140625 19.210938 57.621094 18.832031 57.070312 18.5 C 56.515625 18.167969 55.9375 17.886719 55.335938 17.65625 C 54.730469 17.429688 54.109375 17.257812 53.476562 17.140625 C 52.839844 17.027344 52.199219 16.96875 51.554688 16.96875 C 50.015625 16.96875 48.546875 17.289062 47.148438 17.925781 C 46.617188 16.949219 45.96875 16.058594 45.195312 15.253906 C 44.425781 14.453125 43.5625 13.769531 42.609375 13.199219 C 41.652344 12.628906 40.636719 12.199219 39.566406 11.902344 C 38.492188 11.609375 37.402344 11.460938 36.289062 11.460938 Z M 36.289062 11.460938 "/></g><g clip-rule="nonzero" clip-path="url(#6404207463)"><path style=" stroke:none;fill-rule:nonzero;fill:#ffffff;fill-opacity:1;" d="M 22.863281 16.105469 C 22.054688 16.105469 21.25 16.1875 20.453125 16.34375 C 19.660156 16.503906 18.886719 16.738281 18.136719 17.046875 C 17.390625 17.359375 16.675781 17.738281 16.003906 18.1875 C 15.328125 18.640625 14.703125 19.152344 14.132812 19.722656 C 13.558594 20.296875 13.046875 20.921875 12.59375 21.597656 C 12.144531 22.269531 11.765625 22.980469 11.453125 23.730469 C 11.144531 24.480469 10.910156 25.253906 10.75 26.046875 C 10.59375 26.84375 10.515625 27.644531 10.515625 28.457031 C 10.515625 28.914062 10.546875 29.371094 10.597656 29.824219 C 5.941406 30.660156 2.445312 34.421875 2.445312 38.964844 C 2.445312 44.125 6.957031 48.277344 12.558594 48.277344 L 48.644531 48.277344 C 53.804688 48.277344 57.957031 44.417969 57.957031 39.621094 C 57.957031 34.855469 53.855469 31.011719 48.738281 30.964844 C 48.65625 30.324219 48.519531 29.695312 48.324219 29.082031 C 48.128906 28.464844 47.882812 27.875 47.578125 27.300781 C 47.277344 26.730469 46.925781 26.195312 46.527344 25.6875 C 46.125 25.179688 45.683594 24.714844 45.199219 24.285156 C 44.714844 23.859375 44.195312 23.480469 43.644531 23.148438 C 43.089844 22.8125 42.511719 22.535156 41.910156 22.304688 C 41.304688 22.078125 40.683594 21.90625 40.050781 21.789062 C 39.414062 21.671875 38.773438 21.613281 38.128906 21.613281 C 36.589844 21.617188 35.121094 21.9375 33.722656 22.574219 C 33.191406 21.59375 32.542969 20.707031 31.769531 19.902344 C 31 19.101562 30.136719 18.414062 29.183594 17.847656 C 28.226562 17.277344 27.210938 16.84375 26.140625 16.550781 C 25.066406 16.253906 23.976562 16.105469 22.863281 16.105469 Z M 22.863281 16.105469 "/></g><path style=" stroke:none;fill-rule:nonzero;fill:#3981bf;fill-opacity:1;" d="M 16.902344 42.417969 C 15.964844 43.476562 13.425781 45.597656 12.660156 48.484375 C 12.574219 48.804688 12.550781 49.136719 12.59375 49.46875 C 12.640625 49.800781 12.746094 50.113281 12.914062 50.402344 C 13.082031 50.691406 13.296875 50.941406 13.5625 51.144531 C 13.828125 51.347656 14.125 51.492188 14.449219 51.582031 C 14.773438 51.667969 15.101562 51.6875 15.433594 51.644531 C 15.765625 51.601562 16.078125 51.496094 16.367188 51.328125 C 16.65625 51.160156 16.90625 50.941406 17.109375 50.675781 C 17.3125 50.410156 17.460938 50.117188 17.546875 49.792969 C 17.550781 49.769531 17.558594 49.75 17.5625 49.730469 C 18.347656 46.699219 17.183594 43.792969 16.902344 42.417969 Z M 16.902344 42.417969 "/><path style=" stroke:none;fill-rule:nonzero;fill:#3981bf;fill-opacity:1;" d="M 28.464844 42.417969 C 27.527344 43.476562 24.988281 45.597656 24.222656 48.484375 C 24.136719 48.804688 24.113281 49.136719 24.15625 49.46875 C 24.203125 49.800781 24.308594 50.113281 24.476562 50.402344 C 24.644531 50.691406 24.859375 50.941406 25.125 51.144531 C 25.390625 51.347656 25.6875 51.492188 26.011719 51.582031 C 26.335938 51.667969 26.664062 51.6875 26.996094 51.644531 C 27.328125 51.601562 27.640625 51.496094 27.929688 51.328125 C 28.222656 51.160156 28.46875 50.941406 28.671875 50.675781 C 28.875 50.410156 29.023438 50.117188 29.109375 49.792969 C 29.113281 49.769531 29.121094 49.75 29.125 49.730469 C 29.910156 46.699219 28.746094 43.792969 28.464844 42.417969 Z M 28.464844 42.417969 "/><path style=" stroke:none;fill-rule:nonzero;fill:#3981bf;fill-opacity:1;" d="M 40.046875 42.726562 C 39.109375 43.785156 36.570312 45.90625 35.804688 48.792969 C 35.71875 49.117188 35.695312 49.445312 35.738281 49.777344 C 35.785156 50.109375 35.890625 50.421875 36.058594 50.710938 C 36.222656 51 36.441406 51.25 36.707031 51.453125 C 36.972656 51.65625 37.269531 51.800781 37.59375 51.890625 C 37.917969 51.976562 38.246094 51.996094 38.578125 51.953125 C 38.910156 51.910156 39.222656 51.804688 39.511719 51.636719 C 39.800781 51.46875 40.050781 51.25 40.253906 50.984375 C 40.457031 50.71875 40.601562 50.425781 40.691406 50.101562 C 40.695312 50.078125 40.703125 50.058594 40.707031 50.039062 C 41.492188 47.007812 40.328125 44.101562 40.046875 42.726562 Z M 40.046875 42.726562 "/><path style=" stroke:none;fill-rule:nonzero;fill:#3981bf;fill-opacity:1;" d="M 22.695312 52.949219 C 21.757812 54.007812 19.21875 56.125 18.449219 59.011719 C 18.363281 59.335938 18.34375 59.664062 18.386719 59.996094 C 18.429688 60.328125 18.535156 60.640625 18.703125 60.929688 C 18.871094 61.222656 19.089844 61.46875 19.355469 61.671875 C 19.621094 61.878906 19.914062 62.023438 20.238281 62.109375 C 20.5625 62.195312 20.890625 62.21875 21.222656 62.175781 C 21.554688 62.128906 21.867188 62.023438 22.160156 61.855469 C 22.449219 61.691406 22.695312 61.472656 22.902344 61.207031 C 23.105469 60.941406 23.25 60.644531 23.335938 60.320312 C 23.34375 60.300781 23.347656 60.28125 23.351562 60.257812 C 24.136719 57.226562 22.976562 54.324219 22.695312 52.949219 Z M 22.695312 52.949219 "/><path style=" stroke:none;fill-rule:nonzero;fill:#3981bf;fill-opacity:1;" d="M 34.257812 52.949219 C 33.320312 54.007812 30.78125 56.125 30.011719 59.011719 C 29.925781 59.335938 29.90625 59.664062 29.949219 59.996094 C 29.992188 60.328125 30.097656 60.640625 30.265625 60.929688 C 30.433594 61.222656 30.652344 61.46875 30.917969 61.671875 C 31.183594 61.878906 31.476562 62.023438 31.800781 62.109375 C 32.125 62.195312 32.453125 62.21875 32.785156 62.175781 C 33.117188 62.132812 33.429688 62.023438 33.722656 61.859375 C 34.011719 61.691406 34.257812 61.472656 34.464844 61.207031 C 34.667969 60.941406 34.8125 60.644531 34.898438 60.320312 C 34.90625 60.300781 34.910156 60.28125 34.914062 60.257812 C 35.699219 57.226562 34.539062 54.324219 34.257812 52.949219 Z M 34.257812 52.949219 "/></g></svg>