<svg xmlns="http://www.w3.org/2000/svg" xmlns:xlink="http://www.w3.org/1999/xlink" width="100" zoomAndPan="magnify" viewBox="0 0 75.119995 83.04" height="100" preserveAspectRatio="xMidYMid meet" version="1.2"><defs><clipPath id="987a993055"><path d="M 14 67 L 17 67 L 17 69.453125 L 14 69.453125 Z M 14 67 "/></clipPath><clipPath id="577def00a1"><path d="M 19 4.40625 L 71.398438 4.40625 L 71.398438 37 L 19 37 Z M 19 4.40625 "/></clipPath><clipPath id="0047a8f991"><path d="M 2.453125 11 L 55 11 L 55 43.695312 L 2.453125 43.695312 Z M 2.453125 11 "/></clipPath></defs><g id="d913f7a63c"><path style=" stroke:none;fill-rule:nonzero;fill:#3482f1;fill-opacity:1;" d="M 65.847656 52.320312 C 65.847656 52.722656 65.769531 53.109375 65.617188 53.480469 C 65.460938 53.851562 65.238281 54.179688 64.953125 54.464844 C 64.667969 54.75 64.335938 54.96875 63.960938 55.125 C 63.585938 55.277344 63.195312 55.355469 62.789062 55.355469 C 62.382812 55.355469 61.996094 55.277344 61.621094 55.125 C 61.246094 54.96875 60.914062 54.75 60.628906 54.464844 C 60.339844 54.179688 60.121094 53.851562 59.964844 53.480469 C 59.808594 53.109375 59.730469 52.722656 59.730469 52.320312 C 59.730469 51.914062 59.808594 51.527344 59.964844 51.15625 C 60.121094 50.785156 60.339844 50.457031 60.628906 50.171875 C 60.914062 49.886719 61.246094 49.667969 61.621094 49.511719 C 61.996094 49.359375 62.382812 49.28125 62.789062 49.28125 C 63.195312 49.28125 63.585938 49.359375 63.960938 49.511719 C 64.335938 49.667969 64.667969 49.886719 64.953125 50.171875 C 65.238281 50.457031 65.460938 50.785156 65.617188 51.15625 C 65.769531 51.527344 65.847656 51.914062 65.847656 52.320312 Z M 65.847656 52.320312 "/><path style=" stroke:none;fill-rule:nonzero;fill:#8fcbf7;fill-opacity:1;" d="M 54.621094 65.421875 C 54.621094 65.6875 54.570312 65.945312 54.464844 66.191406 C 54.363281 66.441406 54.214844 66.660156 54.023438 66.847656 C 53.835938 67.035156 53.613281 67.183594 53.367188 67.285156 C 53.117188 67.386719 52.855469 67.4375 52.585938 67.4375 C 52.316406 67.4375 52.058594 67.386719 51.808594 67.285156 C 51.5625 67.183594 51.339844 67.035156 51.152344 66.847656 C 50.960938 66.660156 50.8125 66.441406 50.710938 66.191406 C 50.605469 65.945312 50.554688 65.6875 50.554688 65.421875 C 50.554688 65.152344 50.605469 64.894531 50.710938 64.648438 C 50.8125 64.402344 50.960938 64.183594 51.152344 63.996094 C 51.339844 63.804688 51.5625 63.660156 51.808594 63.558594 C 52.058594 63.453125 52.316406 63.402344 52.585938 63.402344 C 52.855469 63.402344 53.117188 63.453125 53.367188 63.558594 C 53.613281 63.660156 53.835938 63.804688 54.023438 63.996094 C 54.214844 64.183594 54.363281 64.402344 54.464844 64.648438 C 54.570312 64.894531 54.621094 65.152344 54.621094 65.421875 Z M 54.621094 65.421875 "/><path style=" stroke:none;fill-rule:nonzero;fill:#3482f1;fill-opacity:1;" d="M 13.007812 61.394531 C 13.007812 61.800781 12.929688 62.1875 12.773438 62.558594 C 12.617188 62.929688 12.398438 63.257812 12.109375 63.542969 C 11.824219 63.828125 11.492188 64.046875 11.117188 64.203125 C 10.742188 64.355469 10.355469 64.433594 9.949219 64.433594 C 9.542969 64.433594 9.152344 64.355469 8.777344 64.203125 C 8.402344 64.046875 8.070312 63.828125 7.785156 63.542969 C 7.5 63.257812 7.277344 62.929688 7.121094 62.558594 C 6.96875 62.1875 6.890625 61.800781 6.890625 61.394531 C 6.890625 60.992188 6.96875 60.605469 7.121094 60.234375 C 7.277344 59.863281 7.5 59.535156 7.785156 59.25 C 8.070312 58.964844 8.402344 58.746094 8.777344 58.589844 C 9.152344 58.4375 9.542969 58.359375 9.949219 58.359375 C 10.355469 58.359375 10.742188 58.4375 11.117188 58.589844 C 11.492188 58.746094 11.824219 58.964844 12.109375 59.25 C 12.398438 59.535156 12.617188 59.863281 12.773438 60.234375 C 12.929688 60.605469 13.007812 60.992188 13.007812 61.394531 Z M 13.007812 61.394531 "/><path style=" stroke:none;fill-rule:nonzero;fill:#8fcbf7;fill-opacity:1;" d="M 17.0625 51.148438 C 17.0625 51.414062 17.011719 51.671875 16.90625 51.921875 C 16.804688 52.167969 16.65625 52.386719 16.464844 52.574219 C 16.277344 52.765625 16.054688 52.910156 15.808594 53.011719 C 15.558594 53.113281 15.296875 53.164062 15.027344 53.164062 C 14.757812 53.164062 14.5 53.113281 14.25 53.011719 C 14.003906 52.910156 13.78125 52.765625 13.59375 52.574219 C 13.402344 52.386719 13.253906 52.167969 13.152344 51.921875 C 13.046875 51.671875 12.996094 51.414062 12.996094 51.148438 C 12.996094 50.878906 13.046875 50.625 13.152344 50.375 C 13.253906 50.128906 13.402344 49.910156 13.59375 49.722656 C 13.78125 49.53125 14.003906 49.386719 14.25 49.285156 C 14.5 49.183594 14.757812 49.132812 15.027344 49.132812 C 15.296875 49.132812 15.558594 49.183594 15.808594 49.285156 C 16.054688 49.386719 16.277344 49.53125 16.464844 49.722656 C 16.65625 49.910156 16.804688 50.128906 16.90625 50.375 C 17.011719 50.625 17.0625 50.878906 17.0625 51.148438 Z M 17.0625 51.148438 "/><path style=" stroke:none;fill-rule:nonzero;fill:#8fcbf7;fill-opacity:1;" d="M 41.460938 61.394531 C 41.460938 61.800781 41.382812 62.1875 41.226562 62.558594 C 41.074219 62.929688 40.851562 63.257812 40.566406 63.542969 C 40.277344 63.828125 39.945312 64.046875 39.570312 64.203125 C 39.199219 64.355469 38.808594 64.433594 38.402344 64.433594 C 37.996094 64.433594 37.605469 64.355469 37.230469 64.203125 C 36.855469 64.046875 36.527344 63.828125 36.238281 63.542969 C 35.953125 63.257812 35.730469 62.929688 35.574219 62.558594 C 35.421875 62.1875 35.34375 61.800781 35.34375 61.394531 C 35.34375 60.992188 35.421875 60.605469 35.574219 60.234375 C 35.730469 59.863281 35.953125 59.535156 36.238281 59.25 C 36.527344 58.964844 36.855469 58.746094 37.230469 58.589844 C 37.605469 58.4375 37.996094 58.359375 38.402344 58.359375 C 38.808594 58.359375 39.199219 58.4375 39.570312 58.589844 C 39.945312 58.746094 40.277344 58.964844 40.566406 59.25 C 40.851562 59.535156 41.074219 59.863281 41.226562 60.234375 C 41.382812 60.605469 41.460938 60.992188 41.460938 61.394531 Z M 41.460938 61.394531 "/><path style=" stroke:none;fill-rule:nonzero;fill:#8fcbf7;fill-opacity:1;" d="M 21.414062 62.394531 C 21.449219 62.492188 21.488281 62.589844 21.535156 62.683594 L 20.074219 64.132812 C 19.675781 64.527344 19.675781 65.164062 20.074219 65.558594 C 20.269531 65.757812 20.53125 65.855469 20.792969 65.855469 C 21.050781 65.855469 21.3125 65.757812 21.507812 65.558594 L 22.96875 64.109375 C 23.0625 64.152344 23.160156 64.191406 23.261719 64.226562 L 23.261719 65.296875 L 21.820312 66.726562 C 21.421875 67.121094 21.421875 67.757812 21.820312 68.152344 C 22.019531 68.347656 22.277344 68.445312 22.539062 68.445312 C 22.800781 68.445312 23.058594 68.347656 23.257812 68.152344 L 24.277344 67.136719 L 25.300781 68.152344 C 25.5 68.347656 25.757812 68.445312 26.019531 68.445312 C 26.277344 68.445312 26.539062 68.347656 26.738281 68.152344 C 27.132812 67.757812 27.132812 67.117188 26.738281 66.726562 L 25.292969 65.292969 L 25.292969 64.226562 C 25.390625 64.191406 25.488281 64.152344 25.582031 64.109375 L 27.042969 65.558594 C 27.242188 65.757812 27.5 65.855469 27.761719 65.855469 C 28.023438 65.855469 28.28125 65.757812 28.480469 65.558594 C 28.878906 65.164062 28.878906 64.527344 28.480469 64.132812 L 27.019531 62.683594 C 27.066406 62.589844 27.101562 62.492188 27.136719 62.394531 L 28.210938 62.394531 L 29.65625 63.828125 C 29.855469 64.023438 30.113281 64.125 30.375 64.125 C 30.632812 64.125 30.894531 64.023438 31.09375 63.828125 C 31.488281 63.433594 31.488281 62.796875 31.09375 62.402344 L 30.070312 61.386719 L 31.09375 60.375 C 31.488281 59.980469 31.488281 59.34375 31.09375 58.949219 C 30.695312 58.554688 30.050781 58.554688 29.65625 58.949219 L 28.214844 60.378906 L 27.136719 60.378906 C 27.101562 60.28125 27.066406 60.183594 27.019531 60.089844 L 28.480469 58.640625 C 28.878906 58.246094 28.878906 57.609375 28.480469 57.214844 C 28.082031 56.820312 27.441406 56.820312 27.042969 57.214844 L 25.582031 58.664062 C 25.488281 58.617188 25.390625 58.582031 25.292969 58.546875 L 25.292969 57.480469 L 26.738281 56.046875 C 27.132812 55.652344 27.132812 55.015625 26.738281 54.621094 C 26.339844 54.226562 25.695312 54.226562 25.300781 54.621094 L 24.277344 55.636719 L 23.257812 54.621094 C 22.859375 54.226562 22.21875 54.226562 21.820312 54.621094 C 21.421875 55.015625 21.421875 55.652344 21.820312 56.046875 L 23.261719 57.476562 L 23.261719 58.546875 C 23.160156 58.582031 23.0625 58.617188 22.96875 58.664062 L 21.507812 57.214844 C 21.113281 56.820312 20.46875 56.820312 20.074219 57.214844 C 19.675781 57.609375 19.675781 58.246094 20.074219 58.640625 L 21.535156 60.089844 C 21.488281 60.183594 21.449219 60.277344 21.414062 60.378906 L 20.335938 60.378906 L 18.898438 58.949219 C 18.5 58.554688 17.859375 58.554688 17.460938 58.949219 C 17.0625 59.34375 17.0625 59.980469 17.460938 60.375 L 18.484375 61.386719 L 17.460938 62.402344 C 17.0625 62.796875 17.0625 63.433594 17.460938 63.828125 C 17.660156 64.023438 17.917969 64.125 18.179688 64.125 C 18.4375 64.125 18.699219 64.023438 18.898438 63.828125 L 20.34375 62.394531 Z M 23.261719 61.386719 C 23.261719 60.828125 23.714844 60.378906 24.277344 60.378906 C 24.835938 60.378906 25.292969 60.828125 25.292969 61.386719 C 25.292969 61.941406 24.835938 62.394531 24.277344 62.394531 C 23.714844 62.394531 23.261719 61.941406 23.261719 61.386719 Z M 23.261719 61.386719 "/><path style=" stroke:none;fill-rule:nonzero;fill:#8fcbf7;fill-opacity:1;" d="M 55.480469 50.878906 C 55.082031 50.484375 54.441406 50.484375 54.042969 50.878906 L 52.605469 52.308594 L 51.527344 52.308594 C 51.492188 52.210938 51.453125 52.113281 51.410156 52.019531 L 52.867188 50.570312 C 53.265625 50.175781 53.265625 49.539062 52.867188 49.144531 C 52.472656 48.75 51.828125 48.75 51.433594 49.144531 L 49.972656 50.59375 C 49.878906 50.550781 49.78125 50.511719 49.679688 50.476562 L 49.679688 49.410156 L 51.125 47.976562 C 51.523438 47.585938 51.523438 46.945312 51.125 46.550781 C 50.726562 46.15625 50.085938 46.15625 49.6875 46.550781 L 48.667969 47.566406 L 47.644531 46.550781 C 47.25 46.15625 46.605469 46.15625 46.210938 46.550781 C 45.8125 46.945312 45.8125 47.585938 46.210938 47.976562 L 47.648438 49.40625 L 47.648438 50.476562 C 47.550781 50.511719 47.453125 50.550781 47.359375 50.59375 L 45.898438 49.144531 C 45.5 48.75 44.859375 48.75 44.460938 49.144531 C 44.066406 49.539062 44.066406 50.175781 44.460938 50.570312 L 45.921875 52.019531 C 45.878906 52.113281 45.839844 52.210938 45.804688 52.308594 L 44.726562 52.308594 L 43.285156 50.878906 C 42.890625 50.484375 42.246094 50.484375 41.847656 50.878906 C 41.453125 51.273438 41.453125 51.910156 41.847656 52.304688 L 42.871094 53.320312 L 41.847656 54.332031 C 41.453125 54.726562 41.453125 55.363281 41.847656 55.757812 C 42.046875 55.957031 42.308594 56.054688 42.566406 56.054688 C 42.828125 56.054688 43.089844 55.957031 43.285156 55.757812 L 44.730469 54.324219 L 45.804688 54.324219 C 45.839844 54.425781 45.875 54.519531 45.921875 54.613281 L 44.460938 56.0625 C 44.0625 56.457031 44.0625 57.09375 44.460938 57.488281 C 44.660156 57.6875 44.917969 57.785156 45.179688 57.785156 C 45.441406 57.785156 45.699219 57.6875 45.898438 57.488281 L 47.359375 56.039062 C 47.453125 56.085938 47.550781 56.121094 47.648438 56.15625 L 47.648438 57.226562 L 46.207031 58.65625 C 45.8125 59.050781 45.8125 59.6875 46.207031 60.082031 C 46.40625 60.277344 46.667969 60.378906 46.925781 60.378906 C 47.1875 60.378906 47.449219 60.277344 47.644531 60.082031 L 48.667969 59.066406 L 49.6875 60.082031 C 49.886719 60.277344 50.148438 60.378906 50.40625 60.378906 C 50.667969 60.378906 50.925781 60.277344 51.125 60.082031 C 51.523438 59.6875 51.523438 59.050781 51.125 58.65625 L 49.679688 57.222656 L 49.679688 56.15625 C 49.78125 56.121094 49.878906 56.085938 49.972656 56.039062 L 51.433594 57.488281 C 51.628906 57.6875 51.890625 57.785156 52.152344 57.785156 C 52.410156 57.785156 52.671875 57.6875 52.867188 57.488281 C 53.265625 57.09375 53.265625 56.457031 52.867188 56.0625 L 51.410156 54.613281 C 51.453125 54.519531 51.492188 54.425781 51.527344 54.324219 L 52.601562 54.324219 L 54.042969 55.757812 C 54.242188 55.957031 54.503906 56.054688 54.761719 56.054688 C 55.023438 56.054688 55.28125 55.957031 55.480469 55.757812 C 55.878906 55.363281 55.878906 54.726562 55.480469 54.332031 L 54.460938 53.320312 L 55.480469 52.304688 C 55.878906 51.910156 55.878906 51.273438 55.480469 50.878906 Z M 49.679688 53.316406 C 49.679688 53.875 49.226562 54.324219 48.664062 54.324219 C 48.105469 54.324219 47.648438 53.875 47.648438 53.316406 C 47.648438 52.761719 48.105469 52.308594 48.664062 52.308594 C 49.226562 52.308594 49.679688 52.761719 49.679688 53.316406 Z M 49.679688 53.316406 "/><path style=" stroke:none;fill-rule:nonzero;fill:#3482f1;fill-opacity:1;" d="M 55.777344 47.265625 C 55.21875 47.265625 54.761719 47.714844 54.761719 48.273438 C 54.761719 48.832031 55.21875 49.28125 55.777344 49.28125 C 56.339844 49.28125 56.792969 48.832031 56.792969 48.273438 C 56.792969 47.714844 56.339844 47.265625 55.777344 47.265625 Z M 55.777344 47.265625 "/><path style=" stroke:none;fill-rule:nonzero;fill:#8fcbf7;fill-opacity:1;" d="M 60.859375 61.386719 C 60.296875 61.386719 59.84375 61.835938 59.84375 62.394531 C 59.84375 62.953125 60.296875 63.402344 60.859375 63.402344 C 61.421875 63.402344 61.875 62.953125 61.875 62.394531 C 61.875 61.835938 61.421875 61.386719 60.859375 61.386719 Z M 60.859375 61.386719 "/><path style=" stroke:none;fill-rule:nonzero;fill:#3482f1;fill-opacity:1;" d="M 44.601562 66.429688 C 44.039062 66.429688 43.585938 66.882812 43.585938 67.4375 C 43.585938 67.996094 44.039062 68.445312 44.601562 68.445312 C 45.160156 68.445312 45.617188 67.996094 45.617188 67.4375 C 45.617188 66.882812 45.160156 66.429688 44.601562 66.429688 Z M 44.601562 66.429688 "/><path style=" stroke:none;fill-rule:nonzero;fill:#3482f1;fill-opacity:1;" d="M 33.421875 52.308594 C 32.859375 52.308594 32.40625 52.761719 32.40625 53.316406 C 32.40625 53.875 32.859375 54.324219 33.421875 54.324219 C 33.984375 54.324219 34.4375 53.875 34.4375 53.316406 C 34.4375 52.761719 33.984375 52.308594 33.421875 52.308594 Z M 33.421875 52.308594 "/><g clip-rule="nonzero" clip-path="url(#987a993055)"><path style=" stroke:none;fill-rule:nonzero;fill:#8fcbf7;fill-opacity:1;" d="M 15.128906 67.4375 C 14.570312 67.4375 14.113281 67.890625 14.113281 68.445312 C 14.113281 69.003906 14.570312 69.457031 15.128906 69.457031 C 15.691406 69.457031 16.144531 69.003906 16.144531 68.445312 C 16.144531 67.890625 15.691406 67.4375 15.128906 67.4375 Z M 15.128906 67.4375 "/></g><path style=" stroke:none;fill-rule:nonzero;fill:#3482f1;fill-opacity:1;" d="M 8.015625 50.289062 C 7.457031 50.289062 7 50.742188 7 51.300781 C 7 51.855469 7.457031 52.308594 8.015625 52.308594 C 8.578125 52.308594 9.03125 51.855469 9.03125 51.300781 C 9.03125 50.742188 8.578125 50.289062 8.015625 50.289062 Z M 8.015625 50.289062 "/><path style=" stroke:none;fill-rule:nonzero;fill:#3482f1;fill-opacity:1;" d="M 23.261719 49.28125 C 23.820312 49.28125 24.277344 48.832031 24.277344 48.273438 C 24.277344 47.714844 23.820312 47.265625 23.261719 47.265625 C 22.699219 47.265625 22.242188 47.714844 22.242188 48.273438 C 22.242188 48.832031 22.699219 49.28125 23.261719 49.28125 Z M 23.261719 49.28125 "/><g clip-rule="nonzero" clip-path="url(#577def00a1)"><path style=" stroke:none;fill-rule:nonzero;fill:#b5c0d6;fill-opacity:1;" d="M 28.894531 17.832031 L 29.660156 17.832031 C 30.421875 14.628906 33.3125 12.226562 36.765625 12.226562 C 37.605469 12.226562 38.453125 12.414062 39.15625 12.648438 C 40.847656 7.851562 45.421875 4.410156 50.816406 4.410156 C 57.648438 4.410156 63.183594 9.917969 63.183594 16.714844 C 63.183594 17.140625 63.160156 17.5625 63.121094 17.980469 C 67.609375 18.753906 71.054688 22.660156 71.054688 27.339844 C 71.054688 32.570312 66.757812 36.847656 61.5 36.847656 L 28.898438 36.847656 C 23.644531 36.847656 19.34375 32.570312 19.34375 27.339844 C 19.339844 22.113281 23.640625 17.832031 28.894531 17.832031 Z M 28.894531 17.832031 "/></g><g clip-rule="nonzero" clip-path="url(#0047a8f991)"><path style=" stroke:none;fill-rule:nonzero;fill:#ffffff;fill-opacity:1;" d="M 44.648438 24.679688 L 43.878906 24.679688 C 43.117188 21.472656 40.230469 19.074219 36.777344 19.074219 C 35.9375 19.074219 35.089844 19.257812 34.382812 19.492188 C 32.695312 14.699219 28.121094 11.253906 22.722656 11.253906 C 15.894531 11.253906 10.359375 16.761719 10.359375 23.558594 C 10.359375 23.988281 10.382812 24.410156 10.421875 24.828125 C 5.933594 25.597656 2.488281 29.507812 2.488281 34.183594 C 2.488281 39.414062 6.785156 43.695312 12.042969 43.695312 L 44.640625 43.695312 C 49.898438 43.695312 54.195312 39.417969 54.195312 34.183594 C 54.203125 28.957031 49.902344 24.679688 44.648438 24.679688 Z M 44.648438 24.679688 "/></g></g></svg>