<svg xmlns="http://www.w3.org/2000/svg" xmlns:xlink="http://www.w3.org/1999/xlink" width="100" zoomAndPan="magnify" viewBox="0 0 75.119995 83.04" height="100" preserveAspectRatio="xMidYMid meet" version="1.2"><defs><clipPath id="7cd3a91d51"><path d="M 35 2.757812 L 39 2.757812 L 39 14 L 35 14 Z M 35 2.757812 "/></clipPath><clipPath id="67f4665e02"><path d="M 35 60 L 39 60 L 39 71.699219 L 35 71.699219 Z M 35 60 "/></clipPath><clipPath id="dca8390a05"><path d="M 2.75 35 L 14 35 L 14 39 L 2.75 39 Z M 2.75 35 "/></clipPath><clipPath id="d09540f1f9"><path d="M 60 35 L 71.691406 35 L 71.691406 39 L 60 39 Z M 60 35 "/></clipPath></defs><g id="90cf51dd34"><path style=" stroke:none;fill-rule:evenodd;fill:#f4c519;fill-opacity:1;" d="M 37.222656 16.816406 C 48.496094 16.816406 57.632812 25.957031 57.632812 37.226562 C 57.632812 48.5 48.496094 57.636719 37.222656 57.636719 C 25.949219 57.636719 16.8125 48.5 16.8125 37.226562 C 16.8125 25.957031 25.949219 16.816406 37.222656 16.816406 Z M 37.222656 16.816406 "/><path style=" stroke:none;fill-rule:evenodd;fill:#f8cb16;fill-opacity:1;" d="M 37.222656 16.816406 C 41.699219 16.816406 45.835938 18.261719 49.203125 20.703125 C 50.429688 23.328125 51.113281 26.253906 51.113281 29.339844 C 51.113281 40.609375 41.976562 49.75 30.703125 49.75 C 26.226562 49.75 22.089844 48.308594 18.722656 45.863281 C 17.496094 43.242188 16.8125 40.316406 16.8125 37.226562 C 16.8125 25.957031 25.949219 16.816406 37.222656 16.816406 Z M 37.222656 16.816406 "/><g clip-rule="nonzero" clip-path="url(#7cd3a91d51)"><path style=" stroke:none;fill-rule:evenodd;fill:#f8cb16;fill-opacity:1;" d="M 37.222656 2.757812 C 37.996094 2.757812 38.632812 3.390625 38.632812 4.167969 L 38.632812 12.359375 C 38.632812 13.136719 37.996094 13.769531 37.222656 13.769531 C 36.445312 13.769531 35.8125 13.136719 35.8125 12.359375 L 35.8125 4.167969 C 35.8125 3.390625 36.445312 2.757812 37.222656 2.757812 Z M 37.222656 2.757812 "/></g><g clip-rule="nonzero" clip-path="url(#67f4665e02)"><path style=" stroke:none;fill-rule:evenodd;fill:#f8cb16;fill-opacity:1;" d="M 37.222656 60.6875 C 37.996094 60.6875 38.632812 61.320312 38.632812 62.097656 L 38.632812 70.289062 C 38.632812 71.066406 37.996094 71.699219 37.222656 71.699219 C 36.445312 71.699219 35.8125 71.066406 35.8125 70.289062 L 35.8125 62.097656 C 35.8125 61.320312 36.445312 60.6875 37.222656 60.6875 Z M 37.222656 60.6875 "/></g><path style=" stroke:none;fill-rule:evenodd;fill:#f8cb16;fill-opacity:1;" d="M 50.613281 5.464844 C 51.328125 5.765625 51.667969 6.597656 51.367188 7.3125 L 48.183594 14.863281 C 47.882812 15.574219 47.050781 15.914062 46.335938 15.613281 C 45.621094 15.3125 45.285156 14.480469 45.585938 13.765625 L 48.769531 6.214844 C 49.070312 5.5 49.898438 5.164062 50.613281 5.464844 Z M 50.613281 5.464844 "/><path style=" stroke:none;fill-rule:evenodd;fill:#f8cb16;fill-opacity:1;" d="M 28.109375 58.84375 C 28.824219 59.144531 29.160156 59.976562 28.859375 60.691406 L 25.675781 68.238281 C 25.375 68.953125 24.542969 69.292969 23.828125 68.992188 C 23.113281 68.691406 22.777344 67.859375 23.078125 67.144531 L 26.261719 59.59375 C 26.5625 58.878906 27.394531 58.542969 28.109375 58.84375 Z M 28.109375 58.84375 "/><path style=" stroke:none;fill-rule:evenodd;fill:#f8cb16;fill-opacity:1;" d="M 61.597656 12.851562 C 62.144531 13.402344 62.144531 14.296875 61.597656 14.847656 L 55.804688 20.640625 C 55.253906 21.1875 54.359375 21.1875 53.808594 20.640625 C 53.261719 20.09375 53.261719 19.195312 53.808594 18.648438 L 59.601562 12.851562 C 60.152344 12.304688 61.046875 12.304688 61.597656 12.851562 Z M 61.597656 12.851562 "/><path style=" stroke:none;fill-rule:evenodd;fill:#f8cb16;fill-opacity:1;" d="M 20.632812 53.816406 C 21.183594 54.363281 21.183594 55.261719 20.632812 55.808594 L 14.839844 61.601562 C 14.292969 62.152344 13.394531 62.152344 12.847656 61.601562 C 12.296875 61.054688 12.296875 60.15625 12.847656 59.609375 L 18.640625 53.816406 C 19.1875 53.265625 20.085938 53.265625 20.632812 53.816406 Z M 20.632812 53.816406 "/><path style=" stroke:none;fill-rule:evenodd;fill:#f8cb16;fill-opacity:1;" d="M 69.152344 24.238281 C 69.445312 24.957031 69.09375 25.78125 68.378906 26.074219 L 60.789062 29.164062 C 60.070312 29.453125 59.242188 29.105469 58.949219 28.386719 C 58.660156 27.671875 59.007812 26.84375 59.726562 26.550781 L 67.316406 23.464844 C 68.03125 23.171875 68.859375 23.519531 69.152344 24.238281 Z M 69.152344 24.238281 "/><path style=" stroke:none;fill-rule:evenodd;fill:#f8cb16;fill-opacity:1;" d="M 15.492188 46.066406 C 15.785156 46.785156 15.4375 47.613281 14.71875 47.90625 L 7.128906 50.992188 C 6.410156 51.285156 5.585938 50.9375 5.292969 50.21875 C 5 49.5 5.347656 48.671875 6.066406 48.382812 L 13.65625 45.292969 C 14.375 45 15.199219 45.351562 15.492188 46.066406 Z M 15.492188 46.066406 "/><g clip-rule="nonzero" clip-path="url(#dca8390a05)"><path style=" stroke:none;fill-rule:evenodd;fill:#f8cb16;fill-opacity:1;" d="M 2.75 37.226562 C 2.75 36.453125 3.386719 35.820312 4.160156 35.820312 L 12.355469 35.820312 C 13.128906 35.820312 13.761719 36.453125 13.761719 37.226562 C 13.761719 38.003906 13.128906 38.636719 12.355469 38.636719 L 4.160156 38.636719 C 3.386719 38.636719 2.75 38.003906 2.75 37.226562 Z M 2.75 37.226562 "/></g><g clip-rule="nonzero" clip-path="url(#d09540f1f9)"><path style=" stroke:none;fill-rule:evenodd;fill:#f8cb16;fill-opacity:1;" d="M 60.679688 37.226562 C 60.679688 36.453125 61.316406 35.820312 62.089844 35.820312 L 70.285156 35.820312 C 71.058594 35.820312 71.691406 36.453125 71.691406 37.226562 C 71.691406 38.003906 71.058594 38.636719 70.285156 38.636719 L 62.089844 38.636719 C 61.316406 38.636719 60.679688 38.003906 60.679688 37.226562 Z M 60.679688 37.226562 "/></g><path style=" stroke:none;fill-rule:evenodd;fill:#f8cb16;fill-opacity:1;" d="M 5.457031 23.835938 C 5.761719 23.121094 6.589844 22.78125 7.304688 23.085938 L 14.855469 26.269531 C 15.570312 26.570312 15.90625 27.398438 15.605469 28.113281 C 15.304688 28.828125 14.472656 29.167969 13.757812 28.867188 L 6.210938 25.683594 C 5.496094 25.382812 5.15625 24.550781 5.457031 23.835938 Z M 5.457031 23.835938 "/><path style=" stroke:none;fill-rule:evenodd;fill:#f8cb16;fill-opacity:1;" d="M 58.835938 46.34375 C 59.136719 45.628906 59.96875 45.289062 60.683594 45.589844 L 68.234375 48.773438 C 68.949219 49.074219 69.285156 49.90625 68.984375 50.621094 C 68.683594 51.335938 67.851562 51.671875 67.136719 51.371094 L 59.589844 48.1875 C 58.875 47.886719 58.535156 47.054688 58.835938 46.34375 Z M 58.835938 46.34375 "/><path style=" stroke:none;fill-rule:evenodd;fill:#f8cb16;fill-opacity:1;" d="M 12.847656 12.851562 C 13.394531 12.304688 14.292969 12.304688 14.839844 12.851562 L 20.632812 18.648438 C 21.183594 19.195312 21.183594 20.09375 20.632812 20.640625 C 20.085938 21.1875 19.1875 21.1875 18.640625 20.640625 L 12.847656 14.847656 C 12.296875 14.296875 12.296875 13.402344 12.847656 12.851562 Z M 12.847656 12.851562 "/><path style=" stroke:none;fill-rule:evenodd;fill:#f8cb16;fill-opacity:1;" d="M 53.808594 53.816406 C 54.359375 53.265625 55.253906 53.265625 55.804688 53.816406 L 61.597656 59.609375 C 62.144531 60.15625 62.144531 61.054688 61.597656 61.601562 C 61.046875 62.152344 60.152344 62.152344 59.601562 61.601562 L 53.808594 55.808594 C 53.261719 55.261719 53.261719 54.363281 53.808594 53.816406 Z M 53.808594 53.816406 "/><path style=" stroke:none;fill-rule:evenodd;fill:#f8cb16;fill-opacity:1;" d="M 24.230469 5.296875 C 24.949219 5.007812 25.777344 5.355469 26.070312 6.074219 L 29.15625 13.664062 C 29.449219 14.378906 29.101562 15.207031 28.382812 15.5 C 27.664062 15.792969 26.835938 15.441406 26.546875 14.722656 L 23.457031 7.136719 C 23.164062 6.417969 23.515625 5.589844 24.230469 5.296875 Z M 24.230469 5.296875 "/><path style=" stroke:none;fill-rule:evenodd;fill:#f8cb16;fill-opacity:1;" d="M 46.0625 58.957031 C 46.78125 58.664062 47.605469 59.011719 47.898438 59.730469 L 50.988281 67.320312 C 51.277344 68.039062 50.929688 68.867188 50.210938 69.15625 C 49.492188 69.449219 48.667969 69.101562 48.375 68.382812 L 45.289062 60.792969 C 44.996094 60.074219 45.34375 59.25 46.0625 58.957031 Z M 46.0625 58.957031 "/></g></svg>