<svg xmlns="http://www.w3.org/2000/svg" xmlns:xlink="http://www.w3.org/1999/xlink" width="75" zoomAndPan="magnify" viewBox="0 0 56.25 62.249997" height="83" preserveAspectRatio="xMidYMid meet" version="1.2"><defs><clipPath id="b1e620042b"><path d="M 14 23 L 41 23 L 41 37.742188 L 14 37.742188 Z M 14 23 "/></clipPath><clipPath id="822dd1f22c"><path d="M 14 23 L 37 23 L 37 37.742188 L 14 37.742188 Z M 14 23 "/></clipPath><clipPath id="7ef6697c17"><path d="M 26 14.796875 L 29 14.796875 L 29 22 L 26 22 Z M 26 14.796875 "/></clipPath><clipPath id="bdb77436f6"><path d="M 6.160156 35 L 13 35 L 13 37.742188 L 6.160156 37.742188 Z M 6.160156 35 "/></clipPath><clipPath id="fe3b6ca1f8"><path d="M 42 35 L 49 35 L 49 37.742188 L 42 37.742188 Z M 42 35 "/></clipPath></defs><g id="28869b10c6"><g clip-rule="nonzero" clip-path="url(#b1e620042b)"><path style=" stroke:none;fill-rule:evenodd;fill:#f4c519;fill-opacity:1;" d="M 27.539062 23.519531 C 34.527344 23.519531 40.195312 29.183594 40.195312 36.175781 C 40.195312 43.164062 34.527344 48.832031 27.539062 48.832031 C 20.546875 48.832031 14.878906 43.164062 14.878906 36.175781 C 14.878906 29.183594 20.546875 23.519531 27.539062 23.519531 Z M 27.539062 23.519531 "/></g><g clip-rule="nonzero" clip-path="url(#822dd1f22c)"><path style=" stroke:none;fill-rule:evenodd;fill:#f4c519;fill-opacity:1;" d="M 27.539062 23.519531 C 30.3125 23.519531 32.878906 24.410156 34.96875 25.925781 C 35.726562 27.554688 36.152344 29.367188 36.152344 31.28125 C 36.152344 38.273438 30.488281 43.941406 23.496094 43.941406 C 20.71875 43.941406 18.152344 43.046875 16.066406 41.53125 C 15.304688 39.902344 14.878906 38.089844 14.878906 36.175781 C 14.878906 29.183594 20.546875 23.519531 27.539062 23.519531 Z M 27.539062 23.519531 "/></g><g clip-rule="nonzero" clip-path="url(#7ef6697c17)"><path style=" stroke:none;fill-rule:evenodd;fill:#f4c519;fill-opacity:1;" d="M 27.539062 14.796875 C 28.019531 14.796875 28.414062 15.191406 28.414062 15.671875 L 28.414062 20.753906 C 28.414062 21.234375 28.019531 21.628906 27.539062 21.628906 C 27.058594 21.628906 26.664062 21.234375 26.664062 20.753906 L 26.664062 15.671875 C 26.664062 15.191406 27.058594 14.796875 27.539062 14.796875 Z M 27.539062 14.796875 "/></g><path style=" stroke:none;fill-rule:evenodd;fill:#f4c519;fill-opacity:1;" d="M 35.84375 16.476562 C 36.285156 16.664062 36.496094 17.179688 36.308594 17.621094 L 34.335938 22.304688 C 34.148438 22.746094 33.632812 22.957031 33.191406 22.769531 C 32.746094 22.582031 32.539062 22.066406 32.722656 21.625 L 34.699219 16.941406 C 34.886719 16.5 35.398438 16.289062 35.84375 16.476562 Z M 35.84375 16.476562 "/><path style=" stroke:none;fill-rule:evenodd;fill:#f4c519;fill-opacity:1;" d="M 42.652344 21.058594 C 42.992188 21.398438 42.992188 21.957031 42.652344 22.296875 L 39.0625 25.886719 C 38.722656 26.226562 38.164062 26.226562 37.824219 25.886719 C 37.484375 25.546875 37.484375 24.992188 37.824219 24.652344 L 41.417969 21.058594 C 41.757812 20.71875 42.3125 20.71875 42.652344 21.058594 Z M 42.652344 21.058594 "/><path style=" stroke:none;fill-rule:evenodd;fill:#f4c519;fill-opacity:1;" d="M 47.339844 28.121094 C 47.519531 28.566406 47.304688 29.078125 46.859375 29.257812 L 42.152344 31.171875 C 41.707031 31.355469 41.195312 31.136719 41.011719 30.691406 C 40.832031 30.246094 41.046875 29.734375 41.492188 29.554688 L 46.199219 27.640625 C 46.644531 27.457031 47.15625 27.675781 47.339844 28.121094 Z M 47.339844 28.121094 "/><g clip-rule="nonzero" clip-path="url(#bdb77436f6)"><path style=" stroke:none;fill-rule:evenodd;fill:#f4c519;fill-opacity:1;" d="M 6.160156 36.175781 C 6.160156 35.695312 6.554688 35.300781 7.035156 35.300781 L 12.117188 35.300781 C 12.597656 35.300781 12.992188 35.695312 12.992188 36.175781 C 12.992188 36.65625 12.597656 37.050781 12.117188 37.050781 L 7.035156 37.050781 C 6.554688 37.050781 6.160156 36.65625 6.160156 36.175781 Z M 6.160156 36.175781 "/></g><g clip-rule="nonzero" clip-path="url(#fe3b6ca1f8)"><path style=" stroke:none;fill-rule:evenodd;fill:#f4c519;fill-opacity:1;" d="M 42.085938 36.175781 C 42.085938 35.695312 42.480469 35.300781 42.960938 35.300781 L 48.039062 35.300781 C 48.523438 35.300781 48.914062 35.695312 48.914062 36.175781 C 48.914062 36.65625 48.523438 37.050781 48.039062 37.050781 L 42.960938 37.050781 C 42.480469 37.050781 42.085938 36.65625 42.085938 36.175781 Z M 42.085938 36.175781 "/></g><path style=" stroke:none;fill-rule:evenodd;fill:#f4c519;fill-opacity:1;" d="M 7.839844 27.871094 C 8.027344 27.425781 8.542969 27.21875 8.984375 27.402344 L 13.667969 29.378906 C 14.109375 29.566406 14.320312 30.078125 14.132812 30.523438 C 13.945312 30.964844 13.429688 31.175781 12.988281 30.988281 L 8.304688 29.015625 C 7.863281 28.828125 7.652344 28.3125 7.839844 27.871094 Z M 7.839844 27.871094 "/><path style=" stroke:none;fill-rule:evenodd;fill:#f4c519;fill-opacity:1;" d="M 12.421875 21.058594 C 12.761719 20.71875 13.320312 20.71875 13.660156 21.058594 L 17.25 24.652344 C 17.589844 24.992188 17.589844 25.546875 17.25 25.886719 C 16.910156 26.226562 16.355469 26.226562 16.015625 25.886719 L 12.421875 22.296875 C 12.082031 21.957031 12.082031 21.398438 12.421875 21.058594 Z M 12.421875 21.058594 "/><path style=" stroke:none;fill-rule:evenodd;fill:#f4c519;fill-opacity:1;" d="M 19.480469 16.375 C 19.925781 16.191406 20.441406 16.410156 20.621094 16.855469 L 22.535156 21.5625 C 22.71875 22.007812 22.5 22.519531 22.054688 22.699219 C 21.609375 22.882812 21.097656 22.664062 20.917969 22.21875 L 19.003906 17.511719 C 18.820312 17.066406 19.035156 16.554688 19.480469 16.375 Z M 19.480469 16.375 "/><path style="fill:none;stroke-width:2;stroke-linecap:round;stroke-linejoin:miter;stroke:#f4c519;stroke-opacity:1;stroke-miterlimit:4;" d="M 0.999853 0.999577 L 19.762354 0.999577 " transform="matrix(0.740132,0,0,0.740132,2.529508,41.5219)"/><path style="fill:none;stroke-width:2;stroke-linecap:round;stroke-linejoin:miter;stroke:#f4c519;stroke-opacity:1;stroke-miterlimit:4;" d="M 0.999444 0.99896 L 39.19878 0.99896 " transform="matrix(0.736678,0,0,0.736678,21.908262,41.5219)"/><path style="fill:none;stroke-width:2;stroke-linecap:round;stroke-linejoin:miter;stroke:#f4c519;stroke-opacity:1;stroke-miterlimit:4;" d="M 1.001375 0.999415 L 12.53332 0.999415 " transform="matrix(0.740132,0,0,0.740132,0.196351,37.377489)"/><path style="fill:none;stroke-width:2;stroke-linecap:round;stroke-linejoin:miter;stroke:#f4c519;stroke-opacity:1;stroke-miterlimit:4;" d="M 0.998263 1.000128 L 21.10218 1.000128 " transform="matrix(0.736991,0,0,0.736991,10.213508,45.231664)"/><path style="fill:none;stroke-width:2;stroke-linecap:round;stroke-linejoin:miter;stroke:#f4c519;stroke-opacity:1;stroke-miterlimit:4;" d="M 1.000971 1.001162 L 16.802638 1.001162 " transform="matrix(0.740132,0,0,0.740132,30.005244,45.231664)"/><path style="fill:none;stroke-width:2;stroke-linecap:round;stroke-linejoin:miter;stroke:#f4c519;stroke-opacity:1;stroke-miterlimit:4;" d="M 1.000729 1.00197 L 32.440142 1.00197 " transform="matrix(0.730448,0,0,0.730448,12.558083,37.377489)"/><path style="fill:none;stroke-width:2;stroke-linecap:round;stroke-linejoin:miter;stroke:#f4c519;stroke-opacity:1;stroke-miterlimit:4;" d="M 1.000334 1.002443 L 21.435099 1.002443 " transform="matrix(0.726206,0,0,0.726206,38.707145,37.377489)"/></g></svg>