<svg xmlns="http://www.w3.org/2000/svg" xmlns:xlink="http://www.w3.org/1999/xlink" width="100" zoomAndPan="magnify" viewBox="0 0 75.119995 83.04" height="100" preserveAspectRatio="xMidYMid meet" version="1.2"><defs><clipPath id="e452215a9d"><path d="M 42 38 L 58 38 L 58 64 L 42 64 Z M 42 38 "/></clipPath><clipPath id="c88e97ce87"><path d="M 43.734375 37.460938 L 59.207031 39.148438 L 56.390625 64.941406 L 40.917969 63.253906 Z M 43.734375 37.460938 "/></clipPath><clipPath id="af2ab6e944"><path d="M 43.734375 37.460938 L 59.207031 39.148438 L 56.390625 64.941406 L 40.917969 63.253906 Z M 43.734375 37.460938 "/></clipPath><clipPath id="8056b67a31"><path d="M 15 9.230469 L 71.96875 9.230469 L 71.96875 42 L 15 42 Z M 15 9.230469 "/></clipPath><clipPath id="53ec18add6"><path d="M 2.285156 14 L 59 14 L 59 47 L 2.285156 47 Z M 2.285156 14 "/></clipPath></defs><g id="b909a0305e"><g clip-rule="nonzero" clip-path="url(#e452215a9d)"><g clip-rule="nonzero" clip-path="url(#c88e97ce87)"><g clip-rule="nonzero" clip-path="url(#af2ab6e944)"><path style=" stroke:none;fill-rule:nonzero;fill:#f8cb16;fill-opacity:1;" d="M 57.570312 50.546875 L 45.027344 63.535156 C 44.933594 63.628906 44.824219 63.667969 44.691406 63.652344 C 44.625 63.648438 44.566406 63.625 44.511719 63.589844 C 44.324219 63.464844 44.273438 63.300781 44.363281 63.09375 L 48.398438 53.617188 L 42.515625 52.976562 C 42.351562 52.957031 42.242188 52.871094 42.183594 52.714844 C 42.132812 52.566406 42.15625 52.433594 42.257812 52.316406 L 54.523438 38.84375 C 54.664062 38.6875 54.828125 38.660156 55.015625 38.761719 C 55.203125 38.859375 55.269531 39.011719 55.214844 39.21875 L 52.679688 49.355469 L 57.324219 49.863281 C 57.492188 49.882812 57.605469 49.96875 57.664062 50.128906 C 57.71875 50.285156 57.6875 50.425781 57.570312 50.546875 Z M 57.570312 50.546875 "/></g></g></g><g clip-rule="nonzero" clip-path="url(#8056b67a31)"><path style=" stroke:none;fill-rule:nonzero;fill:#cbc8c8;fill-opacity:1;" d="M 36.433594 9.429688 C 35.617188 9.429688 34.808594 9.507812 34.003906 9.667969 C 33.203125 9.828125 32.421875 10.066406 31.667969 10.378906 C 30.910156 10.691406 30.195312 11.074219 29.511719 11.527344 C 28.832031 11.984375 28.203125 12.5 27.625 13.078125 C 27.046875 13.65625 26.53125 14.285156 26.074219 14.964844 C 25.621094 15.648438 25.238281 16.363281 24.925781 17.121094 C 24.609375 17.875 24.375 18.65625 24.214844 19.457031 C 24.054688 20.261719 23.976562 21.070312 23.976562 21.890625 C 23.980469 22.351562 24.007812 22.808594 24.0625 23.269531 C 19.363281 24.113281 15.835938 27.90625 15.835938 32.488281 C 15.835938 37.695312 20.386719 41.886719 26.039062 41.886719 L 62.445312 41.886719 C 67.648438 41.886719 71.839844 37.992188 71.839844 33.152344 C 71.839844 28.34375 67.703125 24.46875 62.539062 24.417969 C 62.457031 23.773438 62.320312 23.140625 62.125 22.519531 C 61.925781 21.898438 61.675781 21.300781 61.371094 20.722656 C 61.066406 20.148438 60.710938 19.605469 60.308594 19.09375 C 59.90625 18.582031 59.460938 18.113281 58.96875 17.679688 C 58.480469 17.25 57.957031 16.867188 57.402344 16.53125 C 56.84375 16.195312 56.257812 15.914062 55.648438 15.683594 C 55.039062 15.453125 54.414062 15.277344 53.773438 15.160156 C 53.132812 15.042969 52.488281 14.984375 51.835938 14.984375 C 50.285156 14.988281 48.800781 15.3125 47.390625 15.953125 C 46.855469 14.964844 46.199219 14.066406 45.421875 13.257812 C 44.644531 12.449219 43.773438 11.757812 42.808594 11.183594 C 41.847656 10.609375 40.824219 10.171875 39.742188 9.875 C 38.660156 9.578125 37.558594 9.429688 36.433594 9.429688 Z M 36.433594 9.429688 "/></g><g clip-rule="nonzero" clip-path="url(#53ec18add6)"><path style=" stroke:none;fill-rule:nonzero;fill:#ffffff;fill-opacity:1;" d="M 22.890625 14.117188 C 22.070312 14.117188 21.261719 14.199219 20.460938 14.359375 C 19.65625 14.515625 18.878906 14.753906 18.121094 15.066406 C 17.367188 15.378906 16.648438 15.761719 15.96875 16.21875 C 15.289062 16.671875 14.660156 17.1875 14.078125 17.765625 C 13.5 18.347656 12.984375 18.976562 12.53125 19.65625 C 12.074219 20.335938 11.691406 21.054688 11.378906 21.808594 C 11.066406 22.566406 10.828125 23.34375 10.667969 24.148438 C 10.511719 24.949219 10.429688 25.757812 10.429688 26.578125 C 10.433594 27.039062 10.460938 27.5 10.515625 27.957031 C 5.816406 28.800781 2.289062 32.597656 2.289062 37.179688 C 2.289062 42.382812 6.839844 46.574219 12.492188 46.574219 L 48.898438 46.574219 C 54.105469 46.574219 58.296875 42.679688 58.296875 37.839844 C 58.296875 33.03125 54.15625 29.15625 48.996094 29.109375 C 48.914062 28.460938 48.773438 27.828125 48.578125 27.207031 C 48.382812 26.585938 48.128906 25.988281 47.824219 25.414062 C 47.519531 24.835938 47.167969 24.292969 46.761719 23.78125 C 46.359375 23.273438 45.914062 22.800781 45.425781 22.371094 C 44.9375 21.9375 44.414062 21.554688 43.855469 21.21875 C 43.296875 20.882812 42.714844 20.601562 42.105469 20.371094 C 41.496094 20.140625 40.871094 19.96875 40.230469 19.851562 C 39.589844 19.734375 38.941406 19.675781 38.292969 19.675781 C 36.738281 19.675781 35.257812 20 33.84375 20.640625 C 33.308594 19.65625 32.652344 18.757812 31.875 17.949219 C 31.097656 17.136719 30.230469 16.445312 29.265625 15.871094 C 28.300781 15.296875 27.277344 14.863281 26.195312 14.566406 C 25.113281 14.265625 24.011719 14.117188 22.890625 14.117188 Z M 22.890625 14.117188 "/></g><path style=" stroke:none;fill-rule:nonzero;fill:#3981bf;fill-opacity:1;" d="M 16.875 40.664062 C 15.929688 41.730469 13.367188 43.871094 12.59375 46.78125 C 12.507812 47.109375 12.484375 47.441406 12.53125 47.773438 C 12.574219 48.109375 12.679688 48.425781 12.851562 48.71875 C 13.019531 49.011719 13.238281 49.261719 13.507812 49.464844 C 13.773438 49.671875 14.074219 49.820312 14.398438 49.90625 C 14.726562 49.996094 15.058594 50.015625 15.394531 49.972656 C 15.730469 49.929688 16.042969 49.820312 16.335938 49.652344 C 16.628906 49.484375 16.878906 49.265625 17.085938 48.996094 C 17.289062 48.726562 17.4375 48.429688 17.523438 48.101562 C 17.53125 48.082031 17.535156 48.058594 17.542969 48.039062 C 18.332031 44.980469 17.160156 42.050781 16.875 40.664062 Z M 16.875 40.664062 "/><path style=" stroke:none;fill-rule:nonzero;fill:#3981bf;fill-opacity:1;" d="M 28.542969 40.664062 C 27.59375 41.730469 25.035156 43.871094 24.261719 46.78125 C 24.171875 47.109375 24.152344 47.441406 24.195312 47.773438 C 24.238281 48.109375 24.347656 48.425781 24.515625 48.71875 C 24.683594 49.011719 24.902344 49.261719 25.171875 49.464844 C 25.441406 49.671875 25.738281 49.820312 26.066406 49.90625 C 26.390625 49.996094 26.722656 50.015625 27.058594 49.972656 C 27.394531 49.929688 27.707031 49.820312 28 49.652344 C 28.292969 49.484375 28.542969 49.265625 28.75 48.996094 C 28.957031 48.726562 29.101562 48.429688 29.191406 48.101562 C 29.195312 48.082031 29.203125 48.058594 29.207031 48.039062 C 30 44.980469 28.824219 42.050781 28.542969 40.664062 Z M 28.542969 40.664062 "/><path style=" stroke:none;fill-rule:nonzero;fill:#3981bf;fill-opacity:1;" d="M 40.226562 40.976562 C 39.28125 42.042969 36.71875 44.179688 35.945312 47.09375 C 35.859375 47.421875 35.835938 47.75 35.878906 48.085938 C 35.925781 48.421875 36.03125 48.738281 36.199219 49.03125 C 36.371094 49.324219 36.589844 49.570312 36.855469 49.777344 C 37.125 49.984375 37.421875 50.132812 37.75 50.21875 C 38.078125 50.304688 38.40625 50.328125 38.742188 50.285156 C 39.078125 50.238281 39.394531 50.132812 39.6875 49.964844 C 39.980469 49.792969 40.230469 49.574219 40.433594 49.308594 C 40.640625 49.039062 40.789062 48.742188 40.875 48.414062 C 40.878906 48.394531 40.886719 48.371094 40.890625 48.351562 C 41.683594 45.292969 40.511719 42.363281 40.226562 40.976562 Z M 40.226562 40.976562 "/><path style=" stroke:none;fill-rule:nonzero;fill:#3981bf;fill-opacity:1;" d="M 22.71875 51.289062 C 21.773438 52.355469 19.210938 54.492188 18.4375 57.40625 C 18.351562 57.730469 18.328125 58.0625 18.371094 58.398438 C 18.417969 58.734375 18.523438 59.046875 18.691406 59.339844 C 18.863281 59.632812 19.082031 59.882812 19.347656 60.089844 C 19.617188 60.296875 19.914062 60.441406 20.242188 60.53125 C 20.570312 60.617188 20.898438 60.640625 21.234375 60.59375 C 21.570312 60.550781 21.886719 60.445312 22.179688 60.277344 C 22.472656 60.105469 22.722656 59.886719 22.925781 59.617188 C 23.132812 59.351562 23.28125 59.054688 23.367188 58.726562 C 23.371094 58.703125 23.378906 58.683594 23.382812 58.664062 C 24.175781 55.605469 23.003906 52.675781 22.71875 51.289062 Z M 22.71875 51.289062 "/><path style=" stroke:none;fill-rule:nonzero;fill:#3981bf;fill-opacity:1;" d="M 34.382812 51.289062 C 33.4375 52.355469 30.875 54.492188 30.101562 57.40625 C 30.015625 57.730469 29.992188 58.0625 30.039062 58.398438 C 30.082031 58.734375 30.1875 59.046875 30.359375 59.339844 C 30.527344 59.632812 30.746094 59.882812 31.015625 60.089844 C 31.28125 60.296875 31.582031 60.441406 31.90625 60.53125 C 32.234375 60.617188 32.566406 60.640625 32.902344 60.59375 C 33.238281 60.550781 33.550781 60.445312 33.84375 60.277344 C 34.136719 60.105469 34.386719 59.886719 34.59375 59.617188 C 34.796875 59.351562 34.945312 59.054688 35.03125 58.726562 C 35.039062 58.703125 35.042969 58.683594 35.050781 58.664062 C 35.839844 55.605469 34.667969 52.675781 34.382812 51.289062 Z M 34.382812 51.289062 "/></g></svg>