<svg xmlns="http://www.w3.org/2000/svg" xmlns:xlink="http://www.w3.org/1999/xlink" width="100" zoomAndPan="magnify" viewBox="0 0 75.119995 83.04" height="100" preserveAspectRatio="xMidYMid meet" version="1.2"><defs><clipPath id="6760789212"><path d="M 28 4.738281 L 31 4.738281 L 31 14 L 28 14 Z M 28 4.738281 "/></clipPath><clipPath id="9e2e1fe7d0"><path d="M 28 52 L 31 52 L 31 61.820312 L 28 61.820312 Z M 28 52 "/></clipPath><clipPath id="642bde09bc"><path d="M 0.921875 32 L 11 32 L 11 35 L 0.921875 35 Z M 0.921875 32 "/></clipPath><clipPath id="81972a2072"><path d="M 6.113281 50.957031 L 59 50.957031 L 59 63 L 6.113281 63 Z M 6.113281 50.957031 "/></clipPath><clipPath id="c6923da132"><path d="M 32 59 L 73.574219 59 L 73.574219 69.488281 L 32 69.488281 Z M 32 59 "/></clipPath></defs><g id="a523fb53ec"><path style=" stroke:none;fill-rule:evenodd;fill:#f4c519;fill-opacity:1;" d="M 29.460938 16.378906 C 38.792969 16.378906 46.359375 23.945312 46.359375 33.277344 C 46.359375 42.609375 38.792969 50.175781 29.460938 50.175781 C 20.128906 50.175781 12.5625 42.609375 12.5625 33.277344 C 12.5625 23.945312 20.128906 16.378906 29.460938 16.378906 Z M 29.460938 16.378906 "/><path style=" stroke:none;fill-rule:evenodd;fill:#f8cb16;fill-opacity:1;" d="M 29.460938 16.378906 C 33.167969 16.378906 36.59375 17.574219 39.378906 19.597656 C 40.394531 21.769531 40.964844 24.191406 40.964844 26.746094 C 40.964844 36.078125 33.398438 43.644531 24.066406 43.644531 C 20.359375 43.644531 16.929688 42.449219 14.144531 40.425781 C 13.128906 38.257812 12.5625 35.832031 12.5625 33.277344 C 12.5625 23.945312 20.128906 16.378906 29.460938 16.378906 Z M 29.460938 16.378906 "/><g clip-rule="nonzero" clip-path="url(#6760789212)"><path style=" stroke:none;fill-rule:evenodd;fill:#f8cb16;fill-opacity:1;" d="M 29.460938 4.738281 C 30.101562 4.738281 30.628906 5.261719 30.628906 5.90625 L 30.628906 12.6875 C 30.628906 13.332031 30.101562 13.855469 29.460938 13.855469 C 28.820312 13.855469 28.292969 13.332031 28.292969 12.6875 L 28.292969 5.90625 C 28.292969 5.261719 28.820312 4.738281 29.460938 4.738281 Z M 29.460938 4.738281 "/></g><g clip-rule="nonzero" clip-path="url(#9e2e1fe7d0)"><path style=" stroke:none;fill-rule:evenodd;fill:#f8cb16;fill-opacity:1;" d="M 29.460938 52.699219 C 30.101562 52.699219 30.628906 53.226562 30.628906 53.867188 L 30.628906 60.652344 C 30.628906 61.292969 30.101562 61.820312 29.460938 61.820312 C 28.820312 61.820312 28.292969 61.292969 28.292969 60.652344 L 28.292969 53.867188 C 28.292969 53.226562 28.820312 52.699219 29.460938 52.699219 Z M 29.460938 52.699219 "/></g><path style=" stroke:none;fill-rule:evenodd;fill:#f8cb16;fill-opacity:1;" d="M 40.550781 6.980469 C 41.140625 7.230469 41.421875 7.917969 41.171875 8.507812 L 38.535156 14.757812 C 38.285156 15.351562 37.597656 15.628906 37.007812 15.382812 C 36.414062 15.132812 36.136719 14.445312 36.386719 13.851562 L 39.019531 7.601562 C 39.269531 7.011719 39.957031 6.730469 40.550781 6.980469 Z M 40.550781 6.980469 "/><path style=" stroke:none;fill-rule:evenodd;fill:#f8cb16;fill-opacity:1;" d="M 21.914062 51.175781 C 22.507812 51.425781 22.785156 52.113281 22.535156 52.703125 L 19.902344 58.953125 C 19.652344 59.546875 18.964844 59.824219 18.371094 59.578125 C 17.78125 59.328125 17.5 58.640625 17.75 58.046875 L 20.386719 51.796875 C 20.636719 51.207031 21.324219 50.925781 21.914062 51.175781 Z M 21.914062 51.175781 "/><path style=" stroke:none;fill-rule:evenodd;fill:#f8cb16;fill-opacity:1;" d="M 49.640625 13.097656 C 50.097656 13.550781 50.097656 14.292969 49.640625 14.746094 L 44.84375 19.542969 C 44.390625 20 43.648438 20 43.195312 19.542969 C 42.742188 19.089844 42.742188 18.347656 43.195312 17.894531 L 47.992188 13.097656 C 48.445312 12.644531 49.1875 12.644531 49.640625 13.097656 Z M 49.640625 13.097656 "/><path style=" stroke:none;fill-rule:evenodd;fill:#f8cb16;fill-opacity:1;" d="M 15.726562 47.011719 C 16.179688 47.464844 16.179688 48.207031 15.726562 48.664062 L 10.929688 53.460938 C 10.476562 53.914062 9.734375 53.914062 9.28125 53.460938 C 8.824219 53.003906 8.824219 52.261719 9.28125 51.808594 L 14.078125 47.011719 C 14.53125 46.558594 15.273438 46.558594 15.726562 47.011719 Z M 15.726562 47.011719 "/><path style=" stroke:none;fill-rule:evenodd;fill:#f8cb16;fill-opacity:1;" d="M 55.898438 22.523438 C 56.140625 23.117188 55.851562 23.800781 55.257812 24.042969 L 48.972656 26.601562 C 48.378906 26.84375 47.695312 26.554688 47.453125 25.957031 C 47.210938 25.363281 47.5 24.679688 48.09375 24.4375 L 54.375 21.882812 C 54.972656 21.640625 55.65625 21.929688 55.898438 22.523438 Z M 55.898438 22.523438 "/><path style=" stroke:none;fill-rule:evenodd;fill:#f8cb16;fill-opacity:1;" d="M 11.46875 40.597656 C 11.710938 41.191406 11.421875 41.875 10.828125 42.117188 L 4.546875 44.675781 C 3.949219 44.917969 3.265625 44.628906 3.023438 44.035156 C 2.78125 43.4375 3.070312 42.753906 3.664062 42.511719 L 9.949219 39.957031 C 10.542969 39.714844 11.226562 40.003906 11.46875 40.597656 Z M 11.46875 40.597656 "/><g clip-rule="nonzero" clip-path="url(#642bde09bc)"><path style=" stroke:none;fill-rule:evenodd;fill:#f8cb16;fill-opacity:1;" d="M 0.921875 33.277344 C 0.921875 32.636719 1.445312 32.109375 2.085938 32.109375 L 8.871094 32.109375 C 9.511719 32.109375 10.039062 32.636719 10.039062 33.277344 C 10.039062 33.921875 9.511719 34.445312 8.871094 34.445312 L 2.085938 34.445312 C 1.445312 34.445312 0.921875 33.921875 0.921875 33.277344 Z M 0.921875 33.277344 "/></g><path style=" stroke:none;fill-rule:evenodd;fill:#f8cb16;fill-opacity:1;" d="M 48.882812 33.277344 C 48.882812 32.636719 49.410156 32.109375 50.050781 32.109375 L 56.835938 32.109375 C 57.476562 32.109375 58 32.636719 58 33.277344 C 58 33.921875 57.476562 34.445312 56.835938 34.445312 L 50.050781 34.445312 C 49.410156 34.445312 48.882812 33.921875 48.882812 33.277344 Z M 48.882812 33.277344 "/><path style=" stroke:none;fill-rule:evenodd;fill:#f8cb16;fill-opacity:1;" d="M 3.164062 22.191406 C 3.410156 21.597656 4.097656 21.316406 4.691406 21.566406 L 10.941406 24.203125 C 11.535156 24.453125 11.8125 25.140625 11.5625 25.730469 C 11.316406 26.324219 10.625 26.601562 10.035156 26.355469 L 3.785156 23.71875 C 3.191406 23.46875 2.914062 22.78125 3.164062 22.191406 Z M 3.164062 22.191406 "/><path style=" stroke:none;fill-rule:evenodd;fill:#f8cb16;fill-opacity:1;" d="M 47.359375 40.824219 C 47.605469 40.234375 48.292969 39.953125 48.886719 40.203125 L 55.136719 42.835938 C 55.730469 43.085938 56.007812 43.773438 55.757812 44.367188 C 55.511719 44.957031 54.820312 45.238281 54.230469 44.988281 L 47.980469 42.351562 C 47.386719 42.105469 47.109375 41.414062 47.359375 40.824219 Z M 47.359375 40.824219 "/><path style=" stroke:none;fill-rule:evenodd;fill:#f8cb16;fill-opacity:1;" d="M 9.28125 13.097656 C 9.734375 12.644531 10.476562 12.644531 10.929688 13.097656 L 15.726562 17.894531 C 16.179688 18.347656 16.179688 19.089844 15.726562 19.542969 C 15.273438 20 14.53125 20 14.078125 19.542969 L 9.28125 14.746094 C 8.824219 14.292969 8.824219 13.550781 9.28125 13.097656 Z M 9.28125 13.097656 "/><path style=" stroke:none;fill-rule:evenodd;fill:#f8cb16;fill-opacity:1;" d="M 43.195312 47.011719 C 43.648438 46.558594 44.390625 46.558594 44.84375 47.011719 L 49.640625 51.808594 C 50.097656 52.261719 50.097656 53.003906 49.640625 53.460938 C 49.1875 53.914062 48.445312 53.914062 47.992188 53.460938 L 43.195312 48.664062 C 42.742188 48.207031 42.742188 47.464844 43.195312 47.011719 Z M 43.195312 47.011719 "/><path style=" stroke:none;fill-rule:evenodd;fill:#f8cb16;fill-opacity:1;" d="M 18.707031 6.839844 C 19.300781 6.597656 19.984375 6.886719 20.226562 7.484375 L 22.78125 13.765625 C 23.023438 14.359375 22.734375 15.046875 22.140625 15.289062 C 21.546875 15.527344 20.863281 15.242188 20.621094 14.644531 L 18.0625 8.363281 C 17.824219 7.769531 18.109375 7.082031 18.707031 6.839844 Z M 18.707031 6.839844 "/><path style=" stroke:none;fill-rule:evenodd;fill:#f8cb16;fill-opacity:1;" d="M 36.78125 51.269531 C 37.375 51.027344 38.058594 51.316406 38.300781 51.910156 L 40.855469 58.195312 C 41.097656 58.789062 40.808594 59.472656 40.214844 59.714844 C 39.621094 59.957031 38.9375 59.667969 38.695312 59.074219 L 36.136719 52.789062 C 35.898438 52.195312 36.183594 51.511719 36.78125 51.269531 Z M 36.78125 51.269531 "/><path style=" stroke:none;fill-rule:nonzero;fill:#99e3fe;fill-opacity:1;" d="M 19.566406 56.261719 L 19.28125 56.261719 C 18.035156 56.292969 16.640625 56.476562 15.097656 56.808594 C 14.152344 57 13.039062 57.363281 11.765625 57.902344 C 9.003906 59.21875 7.597656 60.453125 7.546875 61.609375 C 9.441406 60.46875 10.597656 59.820312 11.007812 59.664062 C 12.136719 59.171875 13.117188 58.84375 13.949219 58.667969 C 16.664062 58.078125 19.089844 57.988281 21.222656 58.402344 C 22.605469 58.707031 23.761719 59.113281 24.683594 59.617188 C 25.65625 60.109375 26.488281 60.792969 27.179688 61.664062 C 27.542969 62.160156 27.742188 62.605469 27.777344 62.996094 C 27.785156 63.539062 27.625 63.832031 27.296875 63.871094 C 26.175781 64.175781 25.300781 64.132812 24.664062 63.753906 C 24.53125 63.660156 24.46875 63.578125 24.476562 63.507812 C 24.570312 63.074219 24.605469 62.589844 24.582031 62.058594 L 24.480469 62.164062 C 24.167969 62.207031 23.894531 62.320312 23.664062 62.496094 C 23.460938 62.707031 23.332031 62.945312 23.277344 63.210938 C 23.179688 63.953125 23.4375 64.53125 24.050781 64.941406 C 24.628906 65.355469 25.410156 65.554688 26.402344 65.542969 C 27.976562 65.542969 28.929688 64.996094 29.261719 63.894531 C 29.636719 62.695312 29.324219 61.464844 28.328125 60.199219 C 27.425781 59.039062 26.160156 58.078125 24.53125 57.324219 C 22.949219 56.617188 21.292969 56.261719 19.566406 56.261719 "/><g clip-rule="nonzero" clip-path="url(#81972a2072)"><path style=" stroke:none;fill-rule:nonzero;fill:#99e3fe;fill-opacity:1;" d="M 53.3125 50.964844 L 53.171875 50.96875 C 51.964844 51 50.894531 51.523438 49.949219 52.542969 C 49.035156 53.671875 48.820312 54.671875 49.3125 55.546875 C 49.65625 56.050781 50.179688 56.175781 50.878906 55.925781 L 50.761719 55.855469 L 50.292969 54.8125 C 50.265625 54.632812 50.382812 54.332031 50.644531 53.910156 C 51.269531 53.042969 52.140625 52.585938 53.265625 52.539062 C 55.761719 52.917969 56.835938 54.078125 56.488281 56.011719 C 55.753906 58.246094 53.777344 59.570312 50.558594 59.976562 C 48.125 60.308594 44.945312 60 41.027344 59.050781 C 40.078125 58.808594 38.957031 58.445312 37.664062 57.957031 C 31.816406 55.457031 28.386719 54.042969 27.367188 53.71875 C 24.90625 52.898438 22.722656 52.445312 20.816406 52.355469 C 17.242188 52.390625 14.390625 52.824219 12.265625 53.65625 C 9.050781 54.976562 7.089844 56.339844 6.378906 57.75 C 6.417969 58.050781 6.332031 58.296875 6.121094 58.484375 C 8.121094 57.1875 9.417969 56.410156 10.011719 56.152344 C 10.851562 55.707031 12.035156 55.292969 13.566406 54.910156 C 16.148438 54.363281 18.65625 54.21875 21.078125 54.476562 C 22.386719 54.609375 24.160156 55.0625 26.40625 55.839844 C 26.757812 55.902344 30.160156 57.292969 36.617188 60.003906 C 37.136719 60.21875 37.984375 60.496094 39.167969 60.84375 C 42.871094 61.949219 46.03125 62.476562 48.644531 62.425781 C 53.5 62.246094 56.628906 60.617188 58.019531 57.535156 C 58.699219 55.875 58.574219 54.339844 57.640625 52.929688 C 56.691406 51.695312 55.246094 51.042969 53.3125 50.964844 "/></g><g clip-rule="nonzero" clip-path="url(#c6923da132)"><path style=" stroke:none;fill-rule:nonzero;fill:#99e3fe;fill-opacity:1;" d="M 67.789062 59.871094 L 67.730469 59.871094 C 66.683594 59.886719 65.507812 60.054688 64.210938 60.367188 C 62.492188 60.808594 60.066406 61.558594 56.925781 62.609375 C 55.9375 62.871094 55.117188 63.066406 54.464844 63.195312 C 52.410156 63.625 50.175781 63.878906 47.769531 63.957031 C 45.929688 64.070312 43.71875 63.890625 41.136719 63.414062 C 39.371094 63.078125 38.1875 62.8125 37.589844 62.617188 C 37.132812 62.507812 35.996094 62.078125 34.175781 61.328125 L 33.351562 61.070312 C 33.101562 60.996094 32.871094 61.042969 32.660156 61.207031 C 32.617188 61.210938 32.554688 61.191406 32.476562 61.148438 C 33.652344 62.253906 35.578125 63.292969 38.246094 64.265625 C 41.957031 65.421875 45.039062 66 47.484375 66 C 50.316406 66.058594 52.777344 65.886719 54.878906 65.480469 C 55.839844 65.292969 56.640625 65.097656 57.285156 64.90625 L 63.746094 62.792969 C 64.394531 62.585938 64.957031 62.417969 65.4375 62.300781 C 66.976562 61.929688 68.136719 61.828125 68.921875 62.003906 C 70.679688 62.492188 71.585938 63.4375 71.640625 64.835938 C 71.730469 66.414062 71.375 67.382812 70.574219 67.742188 C 69.949219 68.085938 69.445312 68.179688 69.0625 68.027344 C 68.710938 67.980469 68.226562 67.574219 67.605469 66.8125 L 67.109375 67.4375 C 66.992188 67.824219 67.21875 68.277344 67.792969 68.796875 C 68.339844 69.238281 68.957031 69.464844 69.644531 69.480469 C 70.957031 69.378906 71.972656 68.804688 72.683594 67.757812 C 73.28125 66.808594 73.464844 65.5 73.238281 63.839844 C 73.078125 62.855469 72.496094 61.949219 71.5 61.121094 C 71.121094 60.796875 70.457031 60.460938 69.511719 60.113281 C 68.992188 59.933594 68.417969 59.855469 67.789062 59.871094 "/></g></g></svg>